<?xml version="1.0" encoding="UTF-8" standalone="no"?>
<svg
   xmlns:dc="http://purl.org/dc/elements/1.1/"
   xmlns:cc="http://creativecommons.org/ns#"
   xmlns:rdf="http://www.w3.org/1999/02/22-rdf-syntax-ns#"
   xmlns:svg="http://www.w3.org/2000/svg"
   xmlns="http://www.w3.org/2000/svg"
   viewBox="0 0 2419.789 267.62891"
   height="267.62891"
   width="2419.7891"
   xml:space="preserve"
   version="1.1"
   id="svg2"><metadata
     id="metadata8"><rdf:RDF><cc:Work
         rdf:about=""><dc:format>image/svg+xml</dc:format><dc:type
           rdf:resource="http://purl.org/dc/dcmitype/StillImage" /><dc:title></dc:title></cc:Work></rdf:RDF></metadata><defs
     id="defs6"><clipPath
       id="clipPath24"
       clipPathUnits="userSpaceOnUse"><path
         id="path26"
         d="m 0,448 691.417,0 0,-448 L 0,0 0,448 Z" /></clipPath><clipPath
       id="clipPath32"
       clipPathUnits="userSpaceOnUse"><path
         id="path34"
         d="m 150.94,184.46 36.44,0 0,-25.73 -36.44,0 0,25.73 z" /></clipPath><clipPath
       id="clipPath48"
       clipPathUnits="userSpaceOnUse"><path
         id="path50"
         d="m 127.94,159.73 23.58,0 0,-1 -23.58,0 0,1 z" /></clipPath><clipPath
       id="clipPath64"
       clipPathUnits="userSpaceOnUse"><path
         id="path66"
         d="m 127.94,222.73 37.31,0 0,-64 -37.31,0 0,64 z" /></clipPath><clipPath
       id="clipPath80"
       clipPathUnits="userSpaceOnUse"><path
         id="path82"
         d="m 187.38,183.96 0,0 -10.92,18.89 -2.68,-4.63 13.6,-14.26 z" /></clipPath><clipPath
       id="clipPath88"
       clipPathUnits="userSpaceOnUse"><path
         id="path90"
         d="m -32768,32767 65535,0 0,-65535 -65535,0 0,65535 z" /></clipPath><radialGradient
       id="radialGradient92"
       spreadMethod="pad"
       gradientTransform="matrix(44.2635,0,0,44.2635,187.21664,184.356)"
       gradientUnits="userSpaceOnUse"
       r="1"
       cy="0"
       cx="0"
       fy="0"
       fx="0"><stop
         id="stop94"
         offset="0"
         style="stop-opacity:0.2;stop-color:#ffffff" /><stop
         id="stop96"
         offset="1"
         style="stop-opacity:0.01998932;stop-color:#ffffff" /></radialGradient><mask
       id="mask98"
       height="1"
       width="1"
       y="0"
       x="0"
       maskUnits="userSpaceOnUse"><g
         id="g100"><g
           id="g102"
           clip-path="url(#clipPath88)"><g
             id="g104"><g
               id="g106"><path
                 id="path108"
                 style="fill:url(#radialGradient92);stroke:none"
                 d="m -32768,32767 65535,0 0,-65535 -65535,0 0,65535 z" /></g></g></g></g></mask><radialGradient
       id="radialGradient114"
       spreadMethod="pad"
       gradientTransform="matrix(44.2635,0,0,44.2635,187.21664,184.356)"
       gradientUnits="userSpaceOnUse"
       r="1"
       cy="0"
       cx="0"
       fy="0"
       fx="0"><stop
         id="stop116"
         offset="0"
         style="stop-opacity:1;stop-color:#bf360c" /><stop
         id="stop118"
         offset="1"
         style="stop-opacity:1;stop-color:#bf360c" /></radialGradient><clipPath
       id="clipPath126"
       clipPathUnits="userSpaceOnUse"><path
         id="path128"
         d="m 173.78,198.22 2.68,4.63 -11.5,19.88 -5.49,-9.5 14.31,-15.01 z" /></clipPath><clipPath
       id="clipPath134"
       clipPathUnits="userSpaceOnUse"><path
         id="path136"
         d="m -32768,32767 65535,0 0,-65535 -65535,0 0,65535 z" /></clipPath><radialGradient
       id="radialGradient138"
       spreadMethod="pad"
       gradientTransform="matrix(44.622799,0,0,44.622799,187.09094,184.0761)"
       gradientUnits="userSpaceOnUse"
       r="1"
       cy="0"
       cx="0"
       fy="0"
       fx="0"><stop
         id="stop140"
         offset="0"
         style="stop-opacity:0.2;stop-color:#ffffff" /><stop
         id="stop142"
         offset="1"
         style="stop-opacity:0.01998932;stop-color:#ffffff" /></radialGradient><mask
       id="mask144"
       height="1"
       width="1"
       y="0"
       x="0"
       maskUnits="userSpaceOnUse"><g
         id="g146"><g
           id="g148"
           clip-path="url(#clipPath134)"><g
             id="g150"><g
               id="g152"><path
                 id="path154"
                 style="fill:url(#radialGradient138);stroke:none"
                 d="m -32768,32767 65535,0 0,-65535 -65535,0 0,65535 z" /></g></g></g></g></mask><radialGradient
       id="radialGradient160"
       spreadMethod="pad"
       gradientTransform="matrix(44.622799,0,0,44.622799,187.09094,184.0761)"
       gradientUnits="userSpaceOnUse"
       r="1"
       cy="0"
       cx="0"
       fy="0"
       fx="0"><stop
         id="stop162"
         offset="0"
         style="stop-opacity:1;stop-color:#263238" /><stop
         id="stop164"
         offset="1"
         style="stop-opacity:1;stop-color:#263238" /></radialGradient><clipPath
       id="clipPath176"
       clipPathUnits="userSpaceOnUse"><path
         id="path178"
         d="m 0,448 691.417,0 0,-448 L 0,0 0,448 Z" /></clipPath><clipPath
       id="clipPath188"
       clipPathUnits="userSpaceOnUse"><path
         id="path190"
         d="m 127.94,286.73 70.94,0 0,-102.77 -70.94,0 0,102.77 z" /></clipPath><clipPath
       id="clipPath204"
       clipPathUnits="userSpaceOnUse"><path
         id="path206"
         d="m 127.94,286.73 79.98,0 0,-64.5 -79.98,0 0,64.5 z" /></clipPath><clipPath
       id="clipPath220"
       clipPathUnits="userSpaceOnUse"><path
         id="path222"
         d="m 198.59,223.23 9.33,0 0,-19.38 -9.33,0 0,19.38 z" /></clipPath><clipPath
       id="clipPath236"
       clipPathUnits="userSpaceOnUse"><path
         id="path238"
         d="m 127.94,286.73 37.02,-64 -37.02,-64 44.85,0 33.54,58 c 2.15,3.71 2.15,8.29 0,12 l 0,0 -33.54,58 -44.85,0 z" /></clipPath><clipPath
       id="clipPath244"
       clipPathUnits="userSpaceOnUse"><path
         id="path246"
         d="m -32768,32767 65535,0 0,-65535 -65535,0 0,65535 z" /></clipPath><radialGradient
       id="radialGradient248"
       spreadMethod="pad"
       gradientTransform="matrix(134.3503,0,0,134.3503,126.94003,285.72998)"
       gradientUnits="userSpaceOnUse"
       r="1"
       cy="0"
       cx="0"
       fy="0"
       fx="0"><stop
         id="stop250"
         offset="0"
         style="stop-opacity:0.09999237;stop-color:#ffffff" /><stop
         id="stop252"
         offset="1"
         style="stop-opacity:0;stop-color:#ffffff" /></radialGradient><mask
       id="mask254"
       height="1"
       width="1"
       y="0"
       x="0"
       maskUnits="userSpaceOnUse"><g
         id="g256"><g
           id="g258"
           clip-path="url(#clipPath244)"><g
             id="g260"><g
               id="g262"><path
                 id="path264"
                 style="fill:url(#radialGradient248);stroke:none"
                 d="m -32768,32767 65535,0 0,-65535 -65535,0 0,65535 z" /></g></g></g></g></mask><radialGradient
       id="radialGradient270"
       spreadMethod="pad"
       gradientTransform="matrix(134.3503,0,0,134.3503,126.94003,285.72998)"
       gradientUnits="userSpaceOnUse"
       r="1"
       cy="0"
       cx="0"
       fy="0"
       fx="0"><stop
         id="stop272"
         offset="0"
         style="stop-opacity:1;stop-color:#ffffff" /><stop
         id="stop274"
         offset="1"
         style="stop-opacity:1;stop-color:#ffffff" /></radialGradient><clipPath
       id="clipPath282"
       clipPathUnits="userSpaceOnUse"><path
         id="path284"
         d="m 0,448 691.417,0 0,-448 L 0,0 0,448 Z" /></clipPath><clipPath
       id="clipPath290"
       clipPathUnits="userSpaceOnUse"><path
         id="path292"
         d="m 255.402,278.153 308.015,0 0,-108.44 -308.015,0 0,108.44 z" /></clipPath><clipPath
       id="clipPath290-3"
       clipPathUnits="userSpaceOnUse"><path
         id="path292-6"
         d="m 255.402,278.153 308.015,0 0,-108.44 -308.015,0 0,108.44 z" /></clipPath></defs><g
     transform="matrix(1.25,0,0,-1.25,-109.92658,412.22663)"
     id="g10"><g
       id="g4439"
       transform="matrix(1.3396854,0,0,-1.3396854,-1237.0769,1295.6171)"><path
         style="fill:#757575"
         class="st0"
         d="m 1071.7,814 -39.5,-63.2 -10.9,0 c -2.2,0 -3,1.5 -1.9,3.4 l 26.5,43.3 0.1,0.2 18,28.7 7.7,-12.4 z"
         id="path4441" /><path
         style="fill:#757575"
         class="st0"
         d="m 1077.8,804.2 c 1.1,-1.8 1.1,-4.9 0,-6.7 L 1051,754.2 c -1.1,-1.8 -3.9,-3.4 -6,-3.4 l -11,0 38.6,61.8 5.2,-8.4 z"
         id="path4443" /><path
         style="fill:#757575"
         class="st0"
         d="m 1055.4,815.4 -22.1,35.4 11.8,0 c 2.2,0 4.9,-1.5 6,-3.4 l 10.7,-17.3 c 0,-0.1 0.1,-0.2 0.3,-0.5 l 1.1,-1.8 -7.8,-12.4 z"
         id="path4445" /><path
         style="fill:#757575"
         class="st0"
         d="m 1046,804.2 -26.5,43.3 c -1.1,1.9 -0.3,3.4 1.9,3.4 l 10.1,0 23,-36.8 -7.7,-12.4 c -0.1,0.9 -0.4,1.8 -0.8,2.5 z"
         id="path4447" /></g><path
       id="rect4268"
       transform="matrix(0.8,0,0,-0.8,87.941264,329.7813)"
       d="m 50,50 0,39.191406 0,89.246094 0,39.19141 531.49609,0 181.53711,0 531.4961,0 543.7656,0 531.4942,0 0,-39.19141 0,-89.246094 0,-39.191406 -531.4942,0 -543.7656,0 L 763.0332,50 581.49609,50 50,50 Z"
       style="color:#000000;clip-rule:nonzero;display:inline;overflow:visible;visibility:visible;opacity:0.53999299;isolation:auto;mix-blend-mode:normal;color-interpolation:sRGB;color-interpolation-filters:linearRGB;solid-color:#000000;solid-opacity:1;fill:none;fill-opacity:1;fill-rule:nonzero;stroke:none;stroke-width:1.25;stroke-linecap:butt;stroke-linejoin:miter;stroke-miterlimit:4;stroke-dasharray:none;stroke-dashoffset:0;stroke-opacity:1;color-rendering:auto;image-rendering:auto;shape-rendering:auto;text-rendering:auto;enable-background:accumulate" /><g
       id="text5081"
       style="color:#000000;font-style:normal;font-weight:normal;font-size:109.70464325px;line-height:125%;font-family:Sans;letter-spacing:0px;word-spacing:0px;clip-rule:nonzero;display:inline;overflow:visible;visibility:visible;opacity:0.53999299;isolation:auto;mix-blend-mode:normal;color-interpolation:sRGB;color-interpolation-filters:linearRGB;solid-color:#000000;solid-opacity:1;fill:#000000;fill-opacity:1;fill-rule:nonzero;stroke:none;stroke-width:1;stroke-linecap:butt;stroke-linejoin:miter;stroke-miterlimit:4;stroke-dasharray:none;stroke-dashoffset:0;stroke-opacity:1;color-rendering:auto;image-rendering:auto;shape-rendering:auto;text-rendering:auto;enable-background:accumulate"
       transform="scale(1,-1)"><path
         id="path4212"
         style="color:#000000;font-style:normal;font-variant:normal;font-weight:normal;font-stretch:normal;font-family:'Product Sans';-inkscape-font-specification:'Product Sans';clip-rule:nonzero;display:inline;overflow:visible;visibility:visible;isolation:auto;mix-blend-mode:normal;color-interpolation:sRGB;color-interpolation-filters:linearRGB;solid-color:#000000;solid-opacity:1;fill:#000000;fill-opacity:1;fill-rule:nonzero;stroke-width:1;stroke-linecap:butt;stroke-linejoin:miter;stroke-miterlimit:4;stroke-dasharray:none;stroke-dashoffset:0;stroke-opacity:1;color-rendering:auto;image-rendering:auto;shape-rendering:auto;text-rendering:auto;enable-background:accumulate"
         d="m 336.08316,-219.72843 q 0,16.45569 -9.76371,26.21941 -10.97046,11.62869 -28.85232,11.62869 -17.11392,0 -28.96203,-11.8481 -11.8481,-11.8481 -11.8481,-29.18144 0,-17.33333 11.8481,-29.18143 11.84811,-11.8481 28.96203,-11.8481 8.66667,0 16.34599,3.07173 7.67933,3.07173 12.61604,8.66666 l -7.24051,7.24051 q -3.62025,-4.38819 -9.4346,-6.80169 -5.70464,-2.52321 -12.28692,-2.52321 -12.83544,0 -21.72152,8.88608 -8.77637,8.99578 -8.77637,22.48945 0,13.49367 8.77637,22.48945 8.88608,8.88608 21.72152,8.88608 11.7384,0 19.52743,-6.58228 7.78903,-6.58228 8.99578,-18.10126 l -28.52321,0 0,-9.4346 38.06751,0 q 0.54852,3.07173 0.54852,5.92405 z" /><path
         id="path4214"
         style="color:#000000;font-style:normal;font-variant:normal;font-weight:normal;font-stretch:normal;font-family:'Product Sans';-inkscape-font-specification:'Product Sans';clip-rule:nonzero;display:inline;overflow:visible;visibility:visible;isolation:auto;mix-blend-mode:normal;color-interpolation:sRGB;color-interpolation-filters:linearRGB;solid-color:#000000;solid-opacity:1;fill:#000000;fill-opacity:1;fill-rule:nonzero;stroke-width:1;stroke-linecap:butt;stroke-linejoin:miter;stroke-miterlimit:4;stroke-dasharray:none;stroke-dashoffset:0;stroke-opacity:1;color-rendering:auto;image-rendering:auto;shape-rendering:auto;text-rendering:auto;enable-background:accumulate"
         d="m 348.34608,-183.6356 0,-78.54853 24.02532,0 q 17.99156,0 28.85232,10.86076 10.97047,10.86076 10.97047,28.4135 0,17.66245 -10.97047,28.52321 -10.86076,10.75106 -28.85232,10.75106 l -24.02532,0 z m 10.09283,-68.89452 0,59.24051 13.93249,0 q 13.71308,0 21.61182,-7.78903 7.89873,-7.89874 7.89873,-21.83123 0,-13.82278 -7.89873,-21.72152 -7.89874,-7.89873 -21.61182,-7.89873 l -13.93249,0 z" /><path
         id="path4216"
         style="color:#000000;font-style:normal;font-variant:normal;font-weight:normal;font-stretch:normal;font-family:'Product Sans';-inkscape-font-specification:'Product Sans';clip-rule:nonzero;display:inline;overflow:visible;visibility:visible;isolation:auto;mix-blend-mode:normal;color-interpolation:sRGB;color-interpolation-filters:linearRGB;solid-color:#000000;solid-opacity:1;fill:#000000;fill-opacity:1;fill-rule:nonzero;stroke-width:1;stroke-linecap:butt;stroke-linejoin:miter;stroke-miterlimit:4;stroke-dasharray:none;stroke-dashoffset:0;stroke-opacity:1;color-rendering:auto;image-rendering:auto;shape-rendering:auto;text-rendering:auto;enable-background:accumulate"
         d="m 499.78305,-219.72843 q 0,16.45569 -9.76371,26.21941 -10.97046,11.62869 -28.85232,11.62869 -17.11392,0 -28.96203,-11.8481 -11.8481,-11.8481 -11.8481,-29.18144 0,-17.33333 11.8481,-29.18143 11.84811,-11.8481 28.96203,-11.8481 8.66667,0 16.34599,3.07173 7.67933,3.07173 12.61604,8.66666 l -7.24051,7.24051 q -3.62025,-4.38819 -9.4346,-6.80169 -5.70464,-2.52321 -12.28692,-2.52321 -12.83544,0 -21.72152,8.88608 -8.77637,8.99578 -8.77637,22.48945 0,13.49367 8.77637,22.48945 8.88608,8.88608 21.72152,8.88608 11.7384,0 19.52743,-6.58228 7.78903,-6.58228 8.99578,-18.10126 l -28.52321,0 0,-9.4346 38.06751,0 q 0.54852,3.07173 0.54852,5.92405 z" /><path
         id="path4218"
         style="color:#000000;font-style:normal;font-variant:normal;font-weight:normal;font-stretch:normal;font-family:'Product Sans';-inkscape-font-specification:'Product Sans';clip-rule:nonzero;display:inline;overflow:visible;visibility:visible;isolation:auto;mix-blend-mode:normal;color-interpolation:sRGB;color-interpolation-filters:linearRGB;solid-color:#000000;solid-opacity:1;fill:#000000;fill-opacity:1;fill-rule:nonzero;stroke-width:1;stroke-linecap:butt;stroke-linejoin:miter;stroke-miterlimit:4;stroke-dasharray:none;stroke-dashoffset:0;stroke-opacity:1;color-rendering:auto;image-rendering:auto;shape-rendering:auto;text-rendering:auto;enable-background:accumulate"
         d="m 558.74073,-252.53012 0,68.89452 -10.09282,0 0,-68.89452 -21.94093,0 0,-9.65401 53.97468,0 0,9.65401 -21.94093,0 z" /><path
         id="path4220"
         style="color:#000000;font-style:normal;font-variant:normal;font-weight:normal;font-stretch:normal;font-family:'Product Sans';-inkscape-font-specification:'Product Sans';clip-rule:nonzero;display:inline;overflow:visible;visibility:visible;isolation:auto;mix-blend-mode:normal;color-interpolation:sRGB;color-interpolation-filters:linearRGB;solid-color:#000000;solid-opacity:1;fill:#000000;fill-opacity:1;fill-rule:nonzero;stroke-width:1;stroke-linecap:butt;stroke-linejoin:miter;stroke-miterlimit:4;stroke-dasharray:none;stroke-dashoffset:0;stroke-opacity:1;color-rendering:auto;image-rendering:auto;shape-rendering:auto;text-rendering:auto;enable-background:accumulate"
         d="m 589.35519,-262.18413 10.09283,0 0,24.79325 -0.43882,7.45992 0.43882,0 q 2.3038,-3.94937 7.0211,-6.58228 4.827,-2.63291 9.98312,-2.63291 9.87342,0 15.13924,5.70464 5.37553,5.59493 5.37553,16.01688 l 0,33.78903 -10.09283,0 0,-31.81435 q 0,-14.48101 -12.83544,-14.48101 -6.14346,0 -10.42195,5.15611 -4.16877,5.04642 -4.16877,11.84811 l 0,29.29114 -10.09283,0 0,-78.54853 z" /><path
         id="path4222"
         style="color:#000000;font-style:normal;font-variant:normal;font-weight:normal;font-stretch:normal;font-family:'Product Sans';-inkscape-font-specification:'Product Sans';clip-rule:nonzero;display:inline;overflow:visible;visibility:visible;isolation:auto;mix-blend-mode:normal;color-interpolation:sRGB;color-interpolation-filters:linearRGB;solid-color:#000000;solid-opacity:1;fill:#000000;fill-opacity:1;fill-rule:nonzero;stroke-width:1;stroke-linecap:butt;stroke-linejoin:miter;stroke-miterlimit:4;stroke-dasharray:none;stroke-dashoffset:0;stroke-opacity:1;color-rendering:auto;image-rendering:auto;shape-rendering:auto;text-rendering:auto;enable-background:accumulate"
         d="m 673.05641,-181.88033 q -11.84811,0 -19.52743,-8.11814 -7.67933,-8.11815 -7.67933,-20.51477 0,-12.28692 7.45992,-20.40507 7.45992,-8.22784 19.08861,-8.22784 11.9578,0 18.9789,7.78903 7.1308,7.67932 7.1308,21.61181 l -0.1097,1.09705 -42.23629,0 q 0.21941,7.89873 5.26582,12.72574 5.04642,4.827 12.06751,4.827 9.65401,0 15.13924,-9.65401 l 8.99579,4.38819 q -3.62026,6.80168 -10.09283,10.64135 -6.36287,3.83966 -14.48101,3.83966 z m -16.12659,-35.10549 30.82701,0 q -0.43882,-5.59493 -4.6076,-9.21519 -4.05907,-3.72995 -10.97046,-3.72995 -5.70464,0 -9.87342,3.51054 -4.05907,3.51055 -5.37553,9.4346 z" /><path
         id="path4224"
         style="color:#000000;font-style:normal;font-variant:normal;font-weight:normal;font-stretch:normal;font-family:'Product Sans';-inkscape-font-specification:'Product Sans';clip-rule:nonzero;display:inline;overflow:visible;visibility:visible;isolation:auto;mix-blend-mode:normal;color-interpolation:sRGB;color-interpolation-filters:linearRGB;solid-color:#000000;solid-opacity:1;fill:#000000;fill-opacity:1;fill-rule:nonzero;stroke-width:1;stroke-linecap:butt;stroke-linejoin:miter;stroke-miterlimit:4;stroke-dasharray:none;stroke-dashoffset:0;stroke-opacity:1;color-rendering:auto;image-rendering:auto;shape-rendering:auto;text-rendering:auto;enable-background:accumulate"
         d="m 733.59795,-183.6356 0,-78.54853 24.02532,0 q 17.99156,0 28.85232,10.86076 10.97047,10.86076 10.97047,28.4135 0,17.66245 -10.97047,28.52321 -10.86076,10.75106 -28.85232,10.75106 l -24.02532,0 z m 10.09283,-68.89452 0,59.24051 13.93249,0 q 13.71308,0 21.61181,-7.78903 7.89874,-7.89874 7.89874,-21.83123 0,-13.82278 -7.89874,-21.72152 -7.89873,-7.89873 -21.61181,-7.89873 l -13.93249,0 z" /><path
         id="path4226"
         style="color:#000000;font-style:normal;font-variant:normal;font-weight:normal;font-stretch:normal;font-family:'Product Sans';-inkscape-font-specification:'Product Sans';clip-rule:nonzero;display:inline;overflow:visible;visibility:visible;isolation:auto;mix-blend-mode:normal;color-interpolation:sRGB;color-interpolation-filters:linearRGB;solid-color:#000000;solid-opacity:1;fill:#000000;fill-opacity:1;fill-rule:nonzero;stroke-width:1;stroke-linecap:butt;stroke-linejoin:miter;stroke-miterlimit:4;stroke-dasharray:none;stroke-dashoffset:0;stroke-opacity:1;color-rendering:auto;image-rendering:auto;shape-rendering:auto;text-rendering:auto;enable-background:accumulate"
         d="m 854.86617,-183.6356 -9.65401,0 0,-7.45992 -0.43882,0 q -2.30379,3.94937 -7.1308,6.58228 -4.7173,2.63291 -9.87342,2.63291 -9.87342,0 -15.24894,-5.59494 -5.26583,-5.70464 -5.26583,-16.12658 l 0,-33.78903 10.09283,0 0,33.1308 q 0.32912,13.16456 13.27426,13.16456 6.03376,0 10.09283,-4.827 4.05907,-4.93671 4.05907,-11.7384 l 0,-29.72996 10.09283,0 0,53.75528 z" /><path
         id="path4228"
         style="color:#000000;font-style:normal;font-variant:normal;font-weight:normal;font-stretch:normal;font-family:'Product Sans';-inkscape-font-specification:'Product Sans';clip-rule:nonzero;display:inline;overflow:visible;visibility:visible;isolation:auto;mix-blend-mode:normal;color-interpolation:sRGB;color-interpolation-filters:linearRGB;solid-color:#000000;solid-opacity:1;fill:#000000;fill-opacity:1;fill-rule:nonzero;stroke-width:1;stroke-linecap:butt;stroke-linejoin:miter;stroke-miterlimit:4;stroke-dasharray:none;stroke-dashoffset:0;stroke-opacity:1;color-rendering:auto;image-rendering:auto;shape-rendering:auto;text-rendering:auto;enable-background:accumulate"
         d="m 889.18486,-182.75797 q -6.58228,0 -10.97047,-4.05907 -4.27848,-4.05907 -4.38818,-11.29958 l 0,-30.05907 -9.4346,0 0,-9.21519 9.4346,0 0,-16.4557 10.09283,0 0,16.4557 13.16455,0 0,9.21519 -13.16455,0 0,26.76793 q 0,5.37553 2.08438,7.35021 2.08439,1.86498 4.7173,1.86498 1.20675,0 2.3038,-0.21941 1.20675,-0.32911 2.19409,-0.76793 l 3.18144,8.99578 q -3.94937,1.42616 -9.21519,1.42616 z" /><path
         id="path4230"
         style="color:#000000;font-style:normal;font-variant:normal;font-weight:normal;font-stretch:normal;font-family:'Product Sans';-inkscape-font-specification:'Product Sans';clip-rule:nonzero;display:inline;overflow:visible;visibility:visible;isolation:auto;mix-blend-mode:normal;color-interpolation:sRGB;color-interpolation-filters:linearRGB;solid-color:#000000;solid-opacity:1;fill:#000000;fill-opacity:1;fill-rule:nonzero;stroke-width:1;stroke-linecap:butt;stroke-linejoin:miter;stroke-miterlimit:4;stroke-dasharray:none;stroke-dashoffset:0;stroke-opacity:1;color-rendering:auto;image-rendering:auto;shape-rendering:auto;text-rendering:auto;enable-background:accumulate"
         d="m 930.61546,-181.88033 q -11.9578,0 -19.85654,-8.11814 -7.78903,-8.33756 -7.78903,-20.51477 0,-12.39663 7.78903,-20.51477 7.89874,-8.11814 19.85654,-8.11814 8.22785,0 14.37131,4.16877 6.14346,4.05907 9.21519,11.29958 l -9.21519,3.83966 q -4.27848,-10.09282 -15.02953,-10.09282 -6.9114,0 -11.95781,5.59493 -4.93671,5.59494 -4.93671,13.82279 0,8.22785 4.93671,13.82278 5.04641,5.59494 11.95781,5.59494 11.08016,0 15.57805,-10.09283 l 8.99579,3.83966 q -2.96203,7.24051 -9.3249,11.40929 -6.25316,4.05907 -14.59072,4.05907 z" /><path
         id="path4232"
         style="color:#000000;font-style:normal;font-variant:normal;font-weight:normal;font-stretch:normal;font-family:'Product Sans';-inkscape-font-specification:'Product Sans';clip-rule:nonzero;display:inline;overflow:visible;visibility:visible;isolation:auto;mix-blend-mode:normal;color-interpolation:sRGB;color-interpolation-filters:linearRGB;solid-color:#000000;solid-opacity:1;fill:#000000;fill-opacity:1;fill-rule:nonzero;stroke-width:1;stroke-linecap:butt;stroke-linejoin:miter;stroke-miterlimit:4;stroke-dasharray:none;stroke-dashoffset:0;stroke-opacity:1;color-rendering:auto;image-rendering:auto;shape-rendering:auto;text-rendering:auto;enable-background:accumulate"
         d="m 963.25091,-262.18413 10.09283,0 0,24.79325 -0.43882,7.45992 0.43882,0 q 2.3038,-3.94937 7.0211,-6.58228 4.827,-2.63291 9.98312,-2.63291 9.87344,0 15.13924,5.70464 5.3755,5.59493 5.3755,16.01688 l 0,33.78903 -10.0928,0 0,-31.81435 q 0,-14.48101 -12.83544,-14.48101 -6.14346,0 -10.42194,5.15611 -4.16878,5.04642 -4.16878,11.84811 l 0,29.29114 -10.09283,0 0,-78.54853 z" /><path
         id="path4234"
         style="color:#000000;font-style:normal;font-variant:normal;font-weight:normal;font-stretch:normal;font-family:'Product Sans';-inkscape-font-specification:'Product Sans';clip-rule:nonzero;display:inline;overflow:visible;visibility:visible;isolation:auto;mix-blend-mode:normal;color-interpolation:sRGB;color-interpolation-filters:linearRGB;solid-color:#000000;solid-opacity:1;fill:#000000;fill-opacity:1;fill-rule:nonzero;stroke-width:1;stroke-linecap:butt;stroke-linejoin:miter;stroke-miterlimit:4;stroke-dasharray:none;stroke-dashoffset:0;stroke-opacity:1;color-rendering:auto;image-rendering:auto;shape-rendering:auto;text-rendering:auto;enable-background:accumulate"
         d="m 1074.0937,-249.7875 -12.8354,35.4346 26.1097,0 -12.8355,-35.4346 -0.4388,0 z m -23.9156,66.1519 -11.1899,0 29.6203,-78.54853 11.4093,0 29.6202,78.54853 -11.1898,0 -7.5697,-21.28271 -33.0211,0 -7.6793,21.28271 z" /><path
         id="path4236"
         style="color:#000000;font-style:normal;font-variant:normal;font-weight:normal;font-stretch:normal;font-family:'Product Sans';-inkscape-font-specification:'Product Sans';clip-rule:nonzero;display:inline;overflow:visible;visibility:visible;isolation:auto;mix-blend-mode:normal;color-interpolation:sRGB;color-interpolation-filters:linearRGB;solid-color:#000000;solid-opacity:1;fill:#000000;fill-opacity:1;fill-rule:nonzero;stroke-width:1;stroke-linecap:butt;stroke-linejoin:miter;stroke-miterlimit:4;stroke-dasharray:none;stroke-dashoffset:0;stroke-opacity:1;color-rendering:auto;image-rendering:auto;shape-rendering:auto;text-rendering:auto;enable-background:accumulate"
         d="m 1117.0945,-237.39088 9.654,0 0,7.45992 0.4389,0 q 2.3038,-3.94937 7.0211,-6.58228 4.827,-2.63291 9.9831,-2.63291 9.8734,0 15.1392,5.70464 5.3756,5.59493 5.3756,16.01688 l 0,33.78903 -10.0929,0 0,-33.13081 q -0.3291,-13.16455 -13.2742,-13.16455 -6.0338,0 -10.0929,4.9367 -4.059,4.82701 -4.059,11.6287 l 0,29.72996 -10.0929,0 0,-53.75528 z" /><path
         id="path4238"
         style="color:#000000;font-style:normal;font-variant:normal;font-weight:normal;font-stretch:normal;font-family:'Product Sans';-inkscape-font-specification:'Product Sans';clip-rule:nonzero;display:inline;overflow:visible;visibility:visible;isolation:auto;mix-blend-mode:normal;color-interpolation:sRGB;color-interpolation-filters:linearRGB;solid-color:#000000;solid-opacity:1;fill:#000000;fill-opacity:1;fill-rule:nonzero;stroke-width:1;stroke-linecap:butt;stroke-linejoin:miter;stroke-miterlimit:4;stroke-dasharray:none;stroke-dashoffset:0;stroke-opacity:1;color-rendering:auto;image-rendering:auto;shape-rendering:auto;text-rendering:auto;enable-background:accumulate"
         d="m 1200.7957,-191.09552 q 7.4599,0 12.1772,-5.37553 4.9367,-5.37553 4.9367,-14.04219 0,-8.44726 -4.9367,-13.93249 -4.827,-5.48523 -12.1772,-5.48523 -7.2405,0 -12.1772,5.48523 -4.9367,5.48523 -4.9367,13.93249 0,8.55696 4.9367,13.93249 4.9367,5.48523 12.1772,5.48523 z m -1.6455,9.21519 q -10.5317,0 -18.1013,-8.33755 -7.4599,-8.44726 -7.4599,-20.29536 0,-11.8481 7.4599,-20.29536 7.5696,-8.33755 18.1013,-8.33755 5.924,0 10.751,2.5232 4.9367,2.52321 7.5696,6.69199 l 0.4388,0 -0.4388,-7.45992 0,-24.79325 10.0929,0 0,78.54853 -9.6541,0 0,-7.45992 -0.4388,0 q -2.6329,4.16878 -7.5696,6.69198 -4.827,2.52321 -10.751,2.52321 z" /><path
         id="path4240"
         style="color:#000000;font-style:normal;font-variant:normal;font-weight:normal;font-stretch:normal;font-family:'Product Sans';-inkscape-font-specification:'Product Sans';clip-rule:nonzero;display:inline;overflow:visible;visibility:visible;isolation:auto;mix-blend-mode:normal;color-interpolation:sRGB;color-interpolation-filters:linearRGB;solid-color:#000000;solid-opacity:1;fill:#000000;fill-opacity:1;fill-rule:nonzero;stroke-width:1;stroke-linecap:butt;stroke-linejoin:miter;stroke-miterlimit:4;stroke-dasharray:none;stroke-dashoffset:0;stroke-opacity:1;color-rendering:auto;image-rendering:auto;shape-rendering:auto;text-rendering:auto;enable-background:accumulate"
         d="m 1249.9623,-183.6356 -10.0929,0 0,-53.75528 9.6541,0 0,8.77637 0.4388,0 q 1.5358,-4.27848 6.2531,-7.24051 4.827,-3.07173 9.4346,-3.07173 4.3882,0 7.4599,1.31646 l -3.0717,9.76371 q -1.865,-0.76793 -5.924,-0.76793 -5.7047,0 -9.9832,4.6076 -4.1687,4.60759 -4.1687,10.75105 l 0,29.62026 z" /><path
         id="path4242"
         style="color:#000000;font-style:normal;font-variant:normal;font-weight:normal;font-stretch:normal;font-family:'Product Sans';-inkscape-font-specification:'Product Sans';clip-rule:nonzero;display:inline;overflow:visible;visibility:visible;isolation:auto;mix-blend-mode:normal;color-interpolation:sRGB;color-interpolation-filters:linearRGB;solid-color:#000000;solid-opacity:1;fill:#000000;fill-opacity:1;fill-rule:nonzero;stroke-width:1;stroke-linecap:butt;stroke-linejoin:miter;stroke-miterlimit:4;stroke-dasharray:none;stroke-dashoffset:0;stroke-opacity:1;color-rendering:auto;image-rendering:auto;shape-rendering:auto;text-rendering:auto;enable-background:accumulate"
         d="m 1273.4374,-210.51324 q 0,-12.39663 7.789,-20.51477 7.8987,-8.11814 19.8565,-8.11814 11.9578,0 19.7469,8.11814 7.8987,8.11814 7.8987,20.51477 0,12.50633 -7.8987,20.51477 -7.7891,8.11814 -19.7469,8.11814 -11.9578,0 -19.8565,-8.11814 -7.789,-8.11815 -7.789,-20.51477 z m 10.0928,0 q 0,8.66666 5.0464,14.04219 5.0464,5.37553 12.5063,5.37553 7.4599,0 12.5064,-5.37553 5.0464,-5.37553 5.0464,-14.04219 0,-8.55696 -5.0464,-13.93249 -5.1562,-5.48523 -12.5064,-5.48523 -7.3502,0 -12.5063,5.48523 -5.0464,5.37553 -5.0464,13.93249 z" /><path
         id="path4244"
         style="color:#000000;font-style:normal;font-variant:normal;font-weight:normal;font-stretch:normal;font-family:'Product Sans';-inkscape-font-specification:'Product Sans';clip-rule:nonzero;display:inline;overflow:visible;visibility:visible;isolation:auto;mix-blend-mode:normal;color-interpolation:sRGB;color-interpolation-filters:linearRGB;solid-color:#000000;solid-opacity:1;fill:#000000;fill-opacity:1;fill-rule:nonzero;stroke-width:1;stroke-linecap:butt;stroke-linejoin:miter;stroke-miterlimit:4;stroke-dasharray:none;stroke-dashoffset:0;stroke-opacity:1;color-rendering:auto;image-rendering:auto;shape-rendering:auto;text-rendering:auto;enable-background:accumulate"
         d="m 1349.9872,-255.93096 q 0,2.96202 -2.0844,5.04641 -2.0844,2.08439 -5.0464,2.08439 -2.9621,0 -5.0465,-2.08439 -2.0843,-2.08439 -2.0843,-5.04641 0,-2.96203 2.0843,-5.04642 2.0844,-2.08439 5.0465,-2.08439 2.962,0 5.0464,2.08439 2.0844,2.08439 2.0844,5.04642 z m -2.0844,18.54008 0,53.75528 -10.0929,0 0,-53.75528 10.0929,0 z" /><path
         id="path4246"
         style="color:#000000;font-style:normal;font-variant:normal;font-weight:normal;font-stretch:normal;font-family:'Product Sans';-inkscape-font-specification:'Product Sans';clip-rule:nonzero;display:inline;overflow:visible;visibility:visible;isolation:auto;mix-blend-mode:normal;color-interpolation:sRGB;color-interpolation-filters:linearRGB;solid-color:#000000;solid-opacity:1;fill:#000000;fill-opacity:1;fill-rule:nonzero;stroke-width:1;stroke-linecap:butt;stroke-linejoin:miter;stroke-miterlimit:4;stroke-dasharray:none;stroke-dashoffset:0;stroke-opacity:1;color-rendering:auto;image-rendering:auto;shape-rendering:auto;text-rendering:auto;enable-background:accumulate"
         d="m 1384.6367,-191.09552 q 7.4599,0 12.1772,-5.37553 4.9367,-5.37553 4.9367,-14.04219 0,-8.44726 -4.9367,-13.93249 -4.827,-5.48523 -12.1772,-5.48523 -7.2405,0 -12.1772,5.48523 -4.9368,5.48523 -4.9368,13.93249 0,8.55696 4.9368,13.93249 4.9367,5.48523 12.1772,5.48523 z m -1.6456,9.21519 q -10.5316,0 -18.1013,-8.33755 -7.4599,-8.44726 -7.4599,-20.29536 0,-11.8481 7.4599,-20.29536 7.5697,-8.33755 18.1013,-8.33755 5.924,0 10.7511,2.5232 4.9367,2.52321 7.5696,6.69199 l 0.4388,0 -0.4388,-7.45992 0,-24.79325 10.0928,0 0,78.54853 -9.654,0 0,-7.45992 -0.4388,0 q -2.6329,4.16878 -7.5696,6.69198 -4.8271,2.52321 -10.7511,2.52321 z" /><path
         id="path4248"
         style="color:#000000;font-style:normal;font-variant:normal;font-weight:normal;font-stretch:normal;font-family:'Product Sans';-inkscape-font-specification:'Product Sans';clip-rule:nonzero;display:inline;overflow:visible;visibility:visible;isolation:auto;mix-blend-mode:normal;color-interpolation:sRGB;color-interpolation-filters:linearRGB;solid-color:#000000;solid-opacity:1;fill:#000000;fill-opacity:1;fill-rule:nonzero;stroke-width:1;stroke-linecap:butt;stroke-linejoin:miter;stroke-miterlimit:4;stroke-dasharray:none;stroke-dashoffset:0;stroke-opacity:1;color-rendering:auto;image-rendering:auto;shape-rendering:auto;text-rendering:auto;enable-background:accumulate"
         d="m 1474.8517,-181.88033 q -13.0549,0 -21.0633,-8.55696 -8.0084,-8.44726 -8.0084,-22.37975 l 0,-49.36709 10.0928,0 0,49.80591 q 0,9.65401 5.0464,15.24894 5.0464,5.59494 13.9325,5.59494 8.8861,0 13.9325,-5.59494 5.0464,-5.59493 5.0464,-15.24894 l 0,-49.80591 10.0928,0 0,49.36709 q 0,14.2616 -7.8987,22.59916 -7.8987,8.33755 -21.173,8.33755 z" /><path
         id="path4250"
         style="color:#000000;font-style:normal;font-variant:normal;font-weight:normal;font-stretch:normal;font-family:'Product Sans';-inkscape-font-specification:'Product Sans';clip-rule:nonzero;display:inline;overflow:visible;visibility:visible;isolation:auto;mix-blend-mode:normal;color-interpolation:sRGB;color-interpolation-filters:linearRGB;solid-color:#000000;solid-opacity:1;fill:#000000;fill-opacity:1;fill-rule:nonzero;stroke-width:1;stroke-linecap:butt;stroke-linejoin:miter;stroke-miterlimit:4;stroke-dasharray:none;stroke-dashoffset:0;stroke-opacity:1;color-rendering:auto;image-rendering:auto;shape-rendering:auto;text-rendering:auto;enable-background:accumulate"
         d="m 1557.413,-198.55544 q 0,7.0211 -6.1435,11.84811 -6.1434,4.827 -15.4683,4.827 -8.1182,0 -14.2616,-4.16878 -6.1435,-4.27848 -8.7764,-11.18987 l 8.9958,-3.83966 q 1.9747,4.827 5.7046,7.56962 3.8397,2.63291 8.3376,2.63291 4.827,0 8.0084,-2.08439 3.2911,-2.08439 3.2911,-4.93671 0,-5.15612 -7.8987,-7.56962 l -9.2152,-2.3038 q -15.6877,-3.94936 -15.6877,-15.13924 0,-7.35021 5.924,-11.73839 6.0338,-4.49789 15.3587,-4.49789 7.1308,0 12.8354,3.40084 5.8143,3.40084 8.1181,9.10548 l -8.9957,3.72996 q -1.5359,-3.40084 -5.0465,-5.26582 -3.4008,-1.97468 -7.6793,-1.97468 -3.9493,0 -7.1308,1.97468 -3.0717,1.97468 -3.0717,4.827 0,4.6076 8.6667,6.58228 l 8.1181,2.08439 q 16.0169,3.94937 16.0169,16.12658 z" /><path
         id="path4252"
         style="color:#000000;font-style:normal;font-variant:normal;font-weight:normal;font-stretch:normal;font-family:'Product Sans';-inkscape-font-specification:'Product Sans';clip-rule:nonzero;display:inline;overflow:visible;visibility:visible;isolation:auto;mix-blend-mode:normal;color-interpolation:sRGB;color-interpolation-filters:linearRGB;solid-color:#000000;solid-opacity:1;fill:#000000;fill-opacity:1;fill-rule:nonzero;stroke-width:1;stroke-linecap:butt;stroke-linejoin:miter;stroke-miterlimit:4;stroke-dasharray:none;stroke-dashoffset:0;stroke-opacity:1;color-rendering:auto;image-rendering:auto;shape-rendering:auto;text-rendering:auto;enable-background:accumulate"
         d="m 1590.9758,-181.88033 q -11.8481,0 -19.5274,-8.11814 -7.6794,-8.11815 -7.6794,-20.51477 0,-12.28692 7.4599,-20.40507 7.46,-8.22784 19.0886,-8.22784 11.9579,0 18.979,7.78903 7.1308,7.67932 7.1308,21.61181 l -0.1097,1.09705 -42.2363,0 q 0.2194,7.89873 5.2658,12.72574 5.0464,4.827 12.0675,4.827 9.654,0 15.1392,-9.65401 l 8.9958,4.38819 q -3.6202,6.80168 -10.0928,10.64135 -6.3629,3.83966 -14.481,3.83966 z m -16.1266,-35.10549 30.827,0 q -0.4388,-5.59493 -4.6076,-9.21519 -4.0591,-3.72995 -10.9705,-3.72995 -5.7046,0 -9.8734,3.51054 -4.059,3.51055 -5.3755,9.4346 z" /><path
         id="path4254"
         style="color:#000000;font-style:normal;font-variant:normal;font-weight:normal;font-stretch:normal;font-family:'Product Sans';-inkscape-font-specification:'Product Sans';clip-rule:nonzero;display:inline;overflow:visible;visibility:visible;isolation:auto;mix-blend-mode:normal;color-interpolation:sRGB;color-interpolation-filters:linearRGB;solid-color:#000000;solid-opacity:1;fill:#000000;fill-opacity:1;fill-rule:nonzero;stroke-width:1;stroke-linecap:butt;stroke-linejoin:miter;stroke-miterlimit:4;stroke-dasharray:none;stroke-dashoffset:0;stroke-opacity:1;color-rendering:auto;image-rendering:auto;shape-rendering:auto;text-rendering:auto;enable-background:accumulate"
         d="m 1635.6427,-183.6356 -10.0928,0 0,-53.75528 9.654,0 0,8.77637 0.4388,0 q 1.5359,-4.27848 6.2532,-7.24051 4.827,-3.07173 9.4346,-3.07173 4.3881,0 7.4599,1.31646 l -3.0718,9.76371 q -1.8649,-0.76793 -5.924,-0.76793 -5.7047,0 -9.9831,4.6076 -4.1688,4.60759 -4.1688,10.75105 l 0,29.62026 z" /><path
         id="path4256"
         style="color:#000000;font-style:normal;font-variant:normal;font-weight:normal;font-stretch:normal;font-family:'Product Sans';-inkscape-font-specification:'Product Sans';clip-rule:nonzero;display:inline;overflow:visible;visibility:visible;isolation:auto;mix-blend-mode:normal;color-interpolation:sRGB;color-interpolation-filters:linearRGB;solid-color:#000000;solid-opacity:1;fill:#000000;fill-opacity:1;fill-rule:nonzero;stroke-width:1;stroke-linecap:butt;stroke-linejoin:miter;stroke-miterlimit:4;stroke-dasharray:none;stroke-dashoffset:0;stroke-opacity:1;color-rendering:auto;image-rendering:auto;shape-rendering:auto;text-rendering:auto;enable-background:accumulate"
         d="m 1764.8147,-219.72843 q 0,16.45569 -9.7637,26.21941 -10.9704,11.62869 -28.8523,11.62869 -17.1139,0 -28.962,-11.8481 -11.8481,-11.8481 -11.8481,-29.18144 0,-17.33333 11.8481,-29.18143 11.8481,-11.8481 28.962,-11.8481 8.6667,0 16.346,3.07173 7.6793,3.07173 12.616,8.66666 l -7.2405,7.24051 q -3.6202,-4.38819 -9.4346,-6.80169 -5.7046,-2.52321 -12.2869,-2.52321 -12.8354,0 -21.7215,8.88608 -8.7764,8.99578 -8.7764,22.48945 0,13.49367 8.7764,22.48945 8.8861,8.88608 21.7215,8.88608 11.7384,0 19.5274,-6.58228 7.7891,-6.58228 8.9958,-18.10126 l -28.5232,0 0,-9.4346 38.0675,0 q 0.5485,3.07173 0.5485,5.92405 z" /><path
         id="path4258"
         style="color:#000000;font-style:normal;font-variant:normal;font-weight:normal;font-stretch:normal;font-family:'Product Sans';-inkscape-font-specification:'Product Sans';clip-rule:nonzero;display:inline;overflow:visible;visibility:visible;isolation:auto;mix-blend-mode:normal;color-interpolation:sRGB;color-interpolation-filters:linearRGB;solid-color:#000000;solid-opacity:1;fill:#000000;fill-opacity:1;fill-rule:nonzero;stroke-width:1;stroke-linecap:butt;stroke-linejoin:miter;stroke-miterlimit:4;stroke-dasharray:none;stroke-dashoffset:0;stroke-opacity:1;color-rendering:auto;image-rendering:auto;shape-rendering:auto;text-rendering:auto;enable-background:accumulate"
         d="m 1783.2726,-183.6356 -10.0929,0 0,-53.75528 9.6541,0 0,8.77637 0.4388,0 q 1.5358,-4.27848 6.2531,-7.24051 4.827,-3.07173 9.4346,-3.07173 4.3882,0 7.46,1.31646 l -3.0718,9.76371 q -1.865,-0.76793 -5.924,-0.76793 -5.7047,0 -9.9832,4.6076 -4.1687,4.60759 -4.1687,10.75105 l 0,29.62026 z" /><path
         id="path4260"
         style="color:#000000;font-style:normal;font-variant:normal;font-weight:normal;font-stretch:normal;font-family:'Product Sans';-inkscape-font-specification:'Product Sans';clip-rule:nonzero;display:inline;overflow:visible;visibility:visible;isolation:auto;mix-blend-mode:normal;color-interpolation:sRGB;color-interpolation-filters:linearRGB;solid-color:#000000;solid-opacity:1;fill:#000000;fill-opacity:1;fill-rule:nonzero;stroke-width:1;stroke-linecap:butt;stroke-linejoin:miter;stroke-miterlimit:4;stroke-dasharray:none;stroke-dashoffset:0;stroke-opacity:1;color-rendering:auto;image-rendering:auto;shape-rendering:auto;text-rendering:auto;enable-background:accumulate"
         d="m 1806.7477,-210.51324 q 0,-12.39663 7.789,-20.51477 7.8987,-8.11814 19.8565,-8.11814 11.9578,0 19.7469,8.11814 7.8987,8.11814 7.8987,20.51477 0,12.50633 -7.8987,20.51477 -7.7891,8.11814 -19.7469,8.11814 -11.9578,0 -19.8565,-8.11814 -7.789,-8.11815 -7.789,-20.51477 z m 10.0928,0 q 0,8.66666 5.0464,14.04219 5.0464,5.37553 12.5063,5.37553 7.4599,0 12.5064,-5.37553 5.0464,-5.37553 5.0464,-14.04219 0,-8.55696 -5.0464,-13.93249 -5.1562,-5.48523 -12.5064,-5.48523 -7.3502,0 -12.5063,5.48523 -5.0464,5.37553 -5.0464,13.93249 z" /><path
         id="path4262"
         style="color:#000000;font-style:normal;font-variant:normal;font-weight:normal;font-stretch:normal;font-family:'Product Sans';-inkscape-font-specification:'Product Sans';clip-rule:nonzero;display:inline;overflow:visible;visibility:visible;isolation:auto;mix-blend-mode:normal;color-interpolation:sRGB;color-interpolation-filters:linearRGB;solid-color:#000000;solid-opacity:1;fill:#000000;fill-opacity:1;fill-rule:nonzero;stroke-width:1;stroke-linecap:butt;stroke-linejoin:miter;stroke-miterlimit:4;stroke-dasharray:none;stroke-dashoffset:0;stroke-opacity:1;color-rendering:auto;image-rendering:auto;shape-rendering:auto;text-rendering:auto;enable-background:accumulate"
         d="m 1917.8441,-183.6356 -9.654,0 0,-7.45992 -0.4389,0 q -2.3037,3.94937 -7.1308,6.58228 -4.7173,2.63291 -9.8734,2.63291 -9.8734,0 -15.2489,-5.59494 -5.2658,-5.70464 -5.2658,-16.12658 l 0,-33.78903 10.0928,0 0,33.1308 q 0.3291,13.16456 13.2742,13.16456 6.0338,0 10.0929,-4.827 4.059,-4.93671 4.059,-11.7384 l 0,-29.72996 10.0929,0 0,53.75528 z" /><path
         id="path4264"
         style="color:#000000;font-style:normal;font-variant:normal;font-weight:normal;font-stretch:normal;font-family:'Product Sans';-inkscape-font-specification:'Product Sans';clip-rule:nonzero;display:inline;overflow:visible;visibility:visible;isolation:auto;mix-blend-mode:normal;color-interpolation:sRGB;color-interpolation-filters:linearRGB;solid-color:#000000;solid-opacity:1;fill:#000000;fill-opacity:1;fill-rule:nonzero;stroke-width:1;stroke-linecap:butt;stroke-linejoin:miter;stroke-miterlimit:4;stroke-dasharray:none;stroke-dashoffset:0;stroke-opacity:1;color-rendering:auto;image-rendering:auto;shape-rendering:auto;text-rendering:auto;enable-background:accumulate"
         d="m 1956.5665,-191.09552 q 7.2405,0 12.1772,-5.48523 4.9367,-5.37553 4.9367,-13.93249 0,-8.44726 -4.9367,-13.93249 -4.9367,-5.48523 -12.1772,-5.48523 -7.3502,0 -12.2869,5.48523 -4.827,5.48523 -4.827,13.93249 0,8.55696 4.827,14.04219 4.9367,5.37553 12.2869,5.37553 z m 1.6455,9.21519 q -5.924,0 -10.8607,-2.52321 -4.827,-2.5232 -7.4599,-6.69198 l -0.4388,0 0.4388,7.45992 0,23.6962 -10.0929,0 0,-77.45148 9.6541,0 0,7.45992 0.4388,0 q 2.6329,-4.16878 7.4599,-6.69199 4.9367,-2.5232 10.8607,-2.5232 10.6414,0 17.9916,8.33755 7.5696,8.44726 7.5696,20.29536 0,11.9578 -7.5696,20.29536 -7.3502,8.33755 -17.9916,8.33755 z" /></g></g></svg>