<?xml version="1.0" encoding="utf-8"?>
<!-- Generator: Adobe Illustrator 19.1.0, SVG Export Plug-In . SVG Version: 6.00 Build 0)  -->
<svg version="1.1" id="Layer_1" xmlns="http://www.w3.org/2000/svg" xmlns:xlink="http://www.w3.org/1999/xlink" x="0px" y="0px"
	 viewBox="1019 750.8 285.2 100" style="enable-background:new 1019 750.8 285.2 100;" xml:space="preserve">
<style type="text/css">
	.st0{fill:#757575;}
</style>
<g>
	<path class="st0" d="M1071.7,814l-39.5-63.2h-10.9c-2.2,0-3,1.5-1.9,3.4l26.5,43.3l0.1,0.2l18,28.7L1071.7,814z"/>
	<path class="st0" d="M1077.8,804.2c1.1-1.8,1.1-4.9,0-6.7l-26.8-43.3c-1.1-1.8-3.9-3.4-6-3.4h-11l38.6,61.8L1077.8,804.2z"/>
	<path class="st0" d="M1055.4,815.4l-22.1,35.4h11.8c2.2,0,4.9-1.5,6-3.4l10.7-17.3c0-0.1,0.1-0.2,0.3-0.5l1.1-1.8L1055.4,815.4z"/>
	<path class="st0" d="M1046,804.2l-26.5,43.3c-1.1,1.9-0.3,3.4,1.9,3.4h10.1l23-36.8l-7.7-12.4
		C1046.7,802.6,1046.4,803.5,1046,804.2z"/>
</g>
<g>
	<path class="st0" d="M1128.5,801.5c0,6-1.6,10.6-4.9,13.8c-3.3,3.2-7.9,4.9-13.9,4.9h-11.6v-35.8h12.4c5.7,0,10.2,1.5,13.3,4.4
		C1126.9,791.7,1128.5,795.9,1128.5,801.5z M1118.4,801.8c0-3.3-0.6-5.7-1.9-7.3c-1.3-1.6-3.3-2.4-5.9-2.4h-2.8v20.1h2.2
		c2.9,0,5.1-0.9,6.5-2.6C1117.7,807.9,1118.4,805.3,1118.4,801.8z"/>
	<path class="st0" d="M1154.1,820.2l-1.8-6.7h-11.6l-1.8,6.7h-10.6l11.7-36h12.9l11.8,36H1154.1z M1150.3,805.5l-1.5-5.9
		c-0.4-1.3-0.8-3-1.3-5.1c-0.5-2.1-0.9-3.6-1-4.5c-0.1,0.8-0.4,2.2-0.9,4.1s-1.4,5.7-2.9,11.3H1150.3z"/>
	<path class="st0" d="M1196.3,784.3v21.6c0,4.7-1.3,8.3-4,10.9c-2.7,2.6-6.5,3.9-11.5,3.9c-4.9,0-8.6-1.2-11.3-3.7
		c-2.6-2.5-3.9-6.1-3.9-10.8v-21.8h9.7v21c0,2.5,0.5,4.4,1.4,5.5s2.3,1.7,4.2,1.7c2,0,3.4-0.6,4.3-1.7c0.9-1.1,1.3-3,1.3-5.6v-21
		H1196.3z"/>
	<path class="st0" d="M1215.4,799.2h15.5v19.3c-4.2,1.4-8.8,2.2-13.8,2.2c-5.5,0-9.8-1.6-12.8-4.8c-3-3.2-4.5-7.8-4.5-13.7
		c0-5.8,1.7-10.3,5-13.5c3.3-3.2,7.9-4.8,13.9-4.8c2.3,0,4.4,0.2,6.4,0.6s3.7,1,5.2,1.6l-3.1,7.6c-2.6-1.3-5.4-1.9-8.5-1.9
		c-2.8,0-5,0.9-6.6,2.8c-1.5,1.8-2.3,4.5-2.3,7.9c0,3.3,0.7,5.9,2.1,7.7c1.4,1.8,3.4,2.6,6,2.6c1.4,0,2.8-0.1,4-0.4v-5.6h-6.4V799.2
		z"/>
</g>
</svg>
