<?xml version="1.0" encoding="UTF-8" standalone="no"?>
<svg
   xmlns:dc="http://purl.org/dc/elements/1.1/"
   xmlns:cc="http://creativecommons.org/ns#"
   xmlns:rdf="http://www.w3.org/1999/02/22-rdf-syntax-ns#"
   xmlns:svg="http://www.w3.org/2000/svg"
   xmlns="http://www.w3.org/2000/svg"
   id="Layer_4"
   viewBox="0 0 979.40411 210"
   version="1.1"
   width="979.40411"
   height="210">
  <metadata
     id="metadata77">
    <rdf:RDF>
      <cc:Work
         rdf:about="">
        <dc:format>image/svg+xml</dc:format>
        <dc:type
           rdf:resource="http://purl.org/dc/dcmitype/StillImage" />
        <dc:title></dc:title>
      </cc:Work>
    </rdf:RDF>
  </metadata>
  <defs
     id="defs75" />
  <style
     id="style3">.st0{fill:none}.st1{fill:#ffc107}.st2{fill:#0f9d58}.st3,.st4,.st5{opacity:.2;fill:#bf360c;enable-background:new}.st4,.st5{fill:#263238}.st5{fill:#fff}.st6{fill:url(#XMLID_257_)}.st7{fill:url(#XMLID_258_)}.st8{fill:#4285f4}.st9{fill:#db4437}.st10,.st11{opacity:.2;fill:#1a237e;enable-background:new}.st11{fill:#3e2723}.st12{fill:url(#XMLID_259_)}.st13{fill:#fafafa}</style>
  <g
     id="XMLID_60_"
     transform="translate(5,5)">
    <g
       id="XMLID_61_">
      <g
         id="XMLID_62_">
        <path
           id="XMLID_106_"
           class="st0"
           d="M 122.5,90.6 70.1,0 0,0 57.8,100 0,200 l 70.1,0 52.4,-90.6 c 3.3,-5.8 3.3,-13 0,-18.8 z"
           style="fill:none" />
        <path
           id="XMLID_105_"
           class="st1"
           d="M 92.4,159.8 75.8,131.1 35.9,200 l 34.2,0 22.8,-39.4 z"
           style="fill:#ffc107" />
        <path
           id="XMLID_104_"
           class="st0"
           d="M 122.5,90.6 70.1,0 0,0 57.8,100 0,200 l 70.1,0 52.4,-90.6 c 3.3,-5.8 3.3,-13 0,-18.8 z"
           style="fill:none" />
        <path
           id="XMLID_103_"
           class="st2"
           d="m 57.8,100 18,31.1 L 35.9,200 0,200 Z"
           style="fill:#0f9d58" />
        <path
           id="XMLID_102_"
           class="st0"
           d="M 122.5,90.6 70.1,0 0,0 57.8,100 0,200 l 70.1,0 52.4,-90.6 c 3.3,-5.8 3.3,-13 0,-18.8 z"
           style="fill:none" />
        <path
           id="XMLID_101_"
           class="st3"
           d="m 70.1,198.4 -33.3,0 -0.9,1.6 34.2,0 22.8,-39.4 -0.5,-0.8 z"
           style="opacity:0.2;fill:#bf360c;enable-background:new" />
        <path
           id="XMLID_100_"
           class="st0"
           d="M 122.5,90.6 70.1,0 0,0 57.8,100 0,200 l 70.1,0 52.4,-90.6 c 3.3,-5.8 3.3,-13 0,-18.8 z"
           style="fill:none" />
        <path
           id="XMLID_99_"
           class="st4"
           d="M 0.9,198.4 0,200 l 35.9,0 0.9,-1.6 z"
           style="opacity:0.2;fill:#263238;enable-background:new" />
        <path
           id="XMLID_98_"
           class="st0"
           d="M 122.5,90.6 70.1,0 0,0 57.8,100 0,200 l 70.1,0 52.4,-90.6 c 3.3,-5.8 3.3,-13 0,-18.8 z"
           style="fill:none" />
        <path
           id="XMLID_96_"
           class="st5"
           d="m 0,200 0.9,0 57.4,-99.2 -0.5,-0.8 z"
           style="opacity:0.2;fill:#ffffff;enable-background:new" />
        <path
           id="XMLID_94_"
           class="st0"
           d="M 122.5,90.6 70.1,0 0,0 57.8,100 0,200 l 70.1,0 52.4,-90.6 c 3.3,-5.8 3.3,-13 0,-18.8 z"
           style="fill:none" />
        <radialGradient
           id="XMLID_257_"
           cx="92.620003"
           cy="2707.501"
           r="69.162003"
           gradientTransform="matrix(1,0,0,-1,0,2867.46)"
           gradientUnits="userSpaceOnUse">
          <stop
             offset="0"
             stop-color="#BF360C"
             stop-opacity=".2"
             id="stop20" />
          <stop
             offset="1"
             stop-color="#BF360C"
             stop-opacity=".02"
             id="stop22" />
        </radialGradient>
        <path
           id="XMLID_92_"
           class="st6"
           d="m 92.9,160.6 -17.1,-29.5 -4.2,7.2 z"
           style="fill:url(#XMLID_257_)" />
        <path
           id="XMLID_90_"
           class="st0"
           d="M 122.5,90.6 70.1,0 0,0 57.8,100 0,200 l 70.1,0 52.4,-90.6 c 3.3,-5.8 3.3,-13 0,-18.8 z"
           style="fill:none" />
        <radialGradient
           id="XMLID_258_"
           cx="92.422997"
           cy="2707.063"
           r="69.723"
           gradientTransform="matrix(1,0,0,-1,0,2867.46)"
           gradientUnits="userSpaceOnUse">
          <stop
             offset="0"
             stop-color="#263238"
             stop-opacity=".2"
             id="stop27" />
          <stop
             offset="1"
             stop-color="#263238"
             stop-opacity=".02"
             id="stop29" />
        </radialGradient>
        <path
           id="XMLID_89_"
           class="st7"
           d="m 71.6,138.3 4.2,-7.2 -18,-31.1 -8.5,14.8 z"
           style="fill:url(#XMLID_258_)" />
        <path
           id="XMLID_88_"
           class="st0"
           d="M 122.5,90.6 70.1,0 0,0 57.8,100 0,200 l 70.1,0 52.4,-90.6 c 3.3,-5.8 3.3,-13 0,-18.8 z"
           style="fill:none" />
        <g
           id="XMLID_85_">
          <g
             id="XMLID_86_">
            <path
               id="XMLID_87_"
               class="st8"
               d="M 35.9,0 0,0 92.9,160.6 110.8,129.5 Z"
               style="fill:#4285f4" />
          </g>
        </g>
        <path
           id="XMLID_84_"
           class="st0"
           d="M 122.5,90.6 70.1,0 0,0 57.8,100 0,200 l 70.1,0 52.4,-90.6 c 3.3,-5.8 3.3,-13 0,-18.8 z"
           style="fill:none" />
        <path
           id="XMLID_83_"
           class="st9"
           d="m 122.5,109.4 c 3.4,-5.8 3.4,-13 0,-18.8 L 70.1,0 35.9,0 l 74.9,129.5 11.7,-20.1 z"
           style="fill:#db4437" />
        <path
           id="XMLID_82_"
           class="st0"
           d="M 122.5,90.6 70.1,0 0,0 57.8,100 0,200 l 70.1,0 52.4,-90.6 c 3.3,-5.8 3.3,-13 0,-18.8 z"
           style="fill:none" />
        <path
           id="XMLID_71_"
           class="st10"
           d="M 110.8,129.5 110.4,128.7 92.9,159 0.9,0 0,0 92.9,160.6 110.8,129.5 Z"
           style="opacity:0.2;fill:#1a237e;enable-background:new" />
        <path
           id="XMLID_69_"
           class="st0"
           d="M 122.5,90.6 70.1,0 0,0 57.8,100 0,200 l 70.1,0 52.4,-90.6 c 3.3,-5.8 3.3,-13 0,-18.8 z"
           style="fill:none" />
        <path
           id="XMLID_67_"
           class="st5"
           d="m 70.1,1.6 52.4,90.6 c 1.5,2.7 2.3,5.6 2.5,8.6 0.1,-3.5 -0.7,-7 -2.5,-10.2 L 70.1,0 0,0 l 0.9,1.6 69.2,0 z"
           style="opacity:0.2;fill:#ffffff;enable-background:new" />
        <path
           id="XMLID_66_"
           class="st0"
           d="M 122.5,90.6 70.1,0 0,0 57.8,100 0,200 l 70.1,0 52.4,-90.6 c 3.3,-5.8 3.3,-13 0,-18.8 z"
           style="fill:none" />
        <path
           id="XMLID_65_"
           class="st11"
           d="m 110.8,129.5 11.6,-20.1 c 1.8,-3.1 2.6,-6.7 2.5,-10.2 -0.1,3 -0.9,5.9 -2.5,8.6 l -12.1,20.9 0.5,0.8 z"
           style="opacity:0.2;fill:#3e2723;enable-background:new" />
        <path
           id="XMLID_64_"
           class="st0"
           d="M 122.5,90.6 70.1,0 0,0 57.8,100 0,200 l 70.1,0 52.4,-90.6 c 3.3,-5.8 3.3,-13 0,-18.8 z"
           style="fill:none" />
        <radialGradient
           id="XMLID_259_"
           cx="-1.563"
           cy="2865.8979"
           r="209.922"
           gradientTransform="matrix(1,0,0,-1,0,2867.46)"
           gradientUnits="userSpaceOnUse">
          <stop
             offset="0"
             stop-color="#FFF"
             stop-opacity=".1"
             id="stop46" />
          <stop
             offset="1"
             stop-color="#FFF"
             stop-opacity="0"
             id="stop48" />
        </radialGradient>
        <path
           id="XMLID_63_"
           class="st12"
           d="M 122.5,90.6 70.1,0 0,0 57.8,100 0,200 l 70.1,0 52.4,-90.6 c 3.3,-5.8 3.3,-13 0,-18.8 z"
           style="fill:url(#XMLID_259_)" />
      </g>
    </g>
  </g>
  <g
     style="fill:#000000;fill-opacity:0.69999999"
     id="g4239">
    <path
       id="path4218"
       style="color:#000000;font-style:normal;font-variant:normal;font-weight:normal;font-stretch:normal;font-size:medium;line-height:125%;font-family:'Product Sans';-inkscape-font-specification:'Product Sans';letter-spacing:0px;word-spacing:0px;clip-rule:nonzero;display:inline;overflow:visible;visibility:visible;isolation:auto;mix-blend-mode:normal;color-interpolation:sRGB;color-interpolation-filters:linearRGB;solid-color:#000000;solid-opacity:1;fill:#000000;fill-opacity:0.69999999;fill-rule:nonzero;stroke:none;stroke-width:1;stroke-linecap:butt;stroke-linejoin:miter;stroke-miterlimit:4;stroke-dasharray:none;stroke-dashoffset:0;stroke-opacity:1;color-rendering:auto;image-rendering:auto;shape-rendering:auto;text-rendering:auto;enable-background:accumulate"
       d="m 231.8153,127.31749 0,68.63388 -10.05464,0 0,-68.63388 -21.85792,0 0,-9.61749 53.77049,0 0,9.61749 -21.85793,0 z" />
    <path
       id="path4220"
       style="color:#000000;font-style:normal;font-variant:normal;font-weight:normal;font-stretch:normal;font-size:medium;line-height:125%;font-family:'Product Sans';-inkscape-font-specification:'Product Sans';letter-spacing:0px;word-spacing:0px;clip-rule:nonzero;display:inline;overflow:visible;visibility:visible;isolation:auto;mix-blend-mode:normal;color-interpolation:sRGB;color-interpolation-filters:linearRGB;solid-color:#000000;solid-opacity:1;fill:#000000;fill-opacity:0.69999999;fill-rule:nonzero;stroke:none;stroke-width:1;stroke-linecap:butt;stroke-linejoin:miter;stroke-miterlimit:4;stroke-dasharray:none;stroke-dashoffset:0;stroke-opacity:1;color-rendering:auto;image-rendering:auto;shape-rendering:auto;text-rendering:auto;enable-background:accumulate"
       d="m 262.31394,117.7 10.05465,0 0,24.69946 -0.43716,7.43169 0.43716,0 q 2.29508,-3.93443 6.99453,-6.55738 4.80874,-2.62295 9.94536,-2.62295 9.83606,0 15.08196,5.68306 5.3552,5.57377 5.3552,15.95629 l 0,33.6612 -10.05465,0 0,-31.69399 q 0,-14.42623 -12.78689,-14.42623 -6.12021,0 -10.38251,5.13661 -4.153,5.02733 -4.153,11.80328 l 0,29.18033 -10.05465,0 0,-78.25137 z" />
    <path
       id="path4222"
       style="color:#000000;font-style:normal;font-variant:normal;font-weight:normal;font-stretch:normal;font-size:medium;line-height:125%;font-family:'Product Sans';-inkscape-font-specification:'Product Sans';letter-spacing:0px;word-spacing:0px;clip-rule:nonzero;display:inline;overflow:visible;visibility:visible;isolation:auto;mix-blend-mode:normal;color-interpolation:sRGB;color-interpolation-filters:linearRGB;solid-color:#000000;solid-opacity:1;fill:#000000;fill-opacity:0.69999999;fill-rule:nonzero;stroke:none;stroke-width:1;stroke-linecap:butt;stroke-linejoin:miter;stroke-miterlimit:4;stroke-dasharray:none;stroke-dashoffset:0;stroke-opacity:1;color-rendering:auto;image-rendering:auto;shape-rendering:auto;text-rendering:auto;enable-background:accumulate"
       d="m 345.6985,197.7 q -11.80328,0 -19.45355,-8.08743 -7.65027,-8.08743 -7.65027,-20.43716 0,-12.24043 7.43169,-20.32787 7.4317,-8.19672 19.0164,-8.19672 11.91256,0 18.9071,7.75957 7.10383,7.65027 7.10383,21.53005 l -0.10929,1.0929 -42.07651,0 q 0.21858,7.86885 5.2459,12.67759 5.02733,4.80875 12.02186,4.80875 9.61749,0 15.08197,-9.61749 l 8.96175,4.37158 q -3.60656,6.77596 -10.05465,10.6011 Q 353.78594,197.7 345.6985,197.7 Z m -16.06557,-34.97267 30.71038,0 q -0.43716,-5.57377 -4.59016,-9.18033 -4.04372,-3.71585 -10.92896,-3.71585 -5.68306,0 -9.83607,3.49727 -4.04371,3.49727 -5.35519,9.39891 z" />
    <path
       id="path4224"
       style="color:#000000;font-style:normal;font-variant:normal;font-weight:normal;font-stretch:normal;font-size:medium;line-height:125%;font-family:'Product Sans';-inkscape-font-specification:'Product Sans';letter-spacing:0px;word-spacing:0px;clip-rule:nonzero;display:inline;overflow:visible;visibility:visible;isolation:auto;mix-blend-mode:normal;color-interpolation:sRGB;color-interpolation-filters:linearRGB;solid-color:#000000;solid-opacity:1;fill:#000000;fill-opacity:0.69999999;fill-rule:nonzero;stroke:none;stroke-width:1;stroke-linecap:butt;stroke-linejoin:miter;stroke-miterlimit:4;stroke-dasharray:none;stroke-dashoffset:0;stroke-opacity:1;color-rendering:auto;image-rendering:auto;shape-rendering:auto;text-rendering:auto;enable-background:accumulate"
       d="m 416.06565,195.95137 -10.05465,0 0,-78.25137 12.24044,0 38.03279,60.87432 0.43716,0 -0.43716,-15.08197 0,-45.79235 10.05464,0 0,78.25137 -10.4918,0 -39.78142,-63.82514 -0.43716,0 0.43716,15.08197 0,48.74317 z" />
    <path
       id="path4226"
       style="color:#000000;font-style:normal;font-variant:normal;font-weight:normal;font-stretch:normal;font-size:medium;line-height:125%;font-family:'Product Sans';-inkscape-font-specification:'Product Sans';letter-spacing:0px;word-spacing:0px;clip-rule:nonzero;display:inline;overflow:visible;visibility:visible;isolation:auto;mix-blend-mode:normal;color-interpolation:sRGB;color-interpolation-filters:linearRGB;solid-color:#000000;solid-opacity:1;fill:#000000;fill-opacity:0.69999999;fill-rule:nonzero;stroke:none;stroke-width:1;stroke-linecap:butt;stroke-linejoin:miter;stroke-miterlimit:4;stroke-dasharray:none;stroke-dashoffset:0;stroke-opacity:1;color-rendering:auto;image-rendering:auto;shape-rendering:auto;text-rendering:auto;enable-background:accumulate"
       d="m 504.29653,197.7 q -11.80328,0 -19.45355,-8.08743 -7.65027,-8.08743 -7.65027,-20.43716 0,-12.24043 7.43169,-20.32787 7.4317,-8.19672 19.0164,-8.19672 11.91256,0 18.9071,7.75957 7.10383,7.65027 7.10383,21.53005 l -0.10929,1.0929 -42.07651,0 q 0.21858,7.86885 5.2459,12.67759 5.02733,4.80875 12.02186,4.80875 9.61749,0 15.08197,-9.61749 l 8.96175,4.37158 q -3.60656,6.77596 -10.05465,10.6011 Q 512.38397,197.7 504.29653,197.7 Z m -16.06557,-34.97267 30.71038,0 q -0.43716,-5.57377 -4.59016,-9.18033 -4.04372,-3.71585 -10.92896,-3.71585 -5.68306,0 -9.83607,3.49727 -4.04371,3.49727 -5.35519,9.39891 z" />
    <path
       id="path4228"
       style="color:#000000;font-style:normal;font-variant:normal;font-weight:normal;font-stretch:normal;font-size:medium;line-height:125%;font-family:'Product Sans';-inkscape-font-specification:'Product Sans';letter-spacing:0px;word-spacing:0px;clip-rule:nonzero;display:inline;overflow:visible;visibility:visible;isolation:auto;mix-blend-mode:normal;color-interpolation:sRGB;color-interpolation-filters:linearRGB;solid-color:#000000;solid-opacity:1;fill:#000000;fill-opacity:0.69999999;fill-rule:nonzero;stroke:none;stroke-width:1;stroke-linecap:butt;stroke-linejoin:miter;stroke-miterlimit:4;stroke-dasharray:none;stroke-dashoffset:0;stroke-opacity:1;color-rendering:auto;image-rendering:auto;shape-rendering:auto;text-rendering:auto;enable-background:accumulate"
       d="m 558.23436,196.82569 q -6.55738,0 -10.92896,-4.04372 -4.2623,-4.04371 -4.37159,-11.25683 l 0,-29.94536 -9.3989,0 0,-9.18032 9.3989,0 0,-16.39345 10.05465,0 0,16.39345 13.11475,0 0,9.18032 -13.11475,0 0,26.66667 q 0,5.35519 2.0765,7.32241 2.07651,1.85792 4.69946,1.85792 1.20218,0 2.29508,-0.21858 1.20218,-0.32787 2.18579,-0.76503 l 3.1694,8.96175 q -3.93443,1.42077 -9.18033,1.42077 z" />
    <path
       id="path4230"
       style="color:#000000;font-style:normal;font-variant:normal;font-weight:normal;font-stretch:normal;font-size:medium;line-height:125%;font-family:'Product Sans';-inkscape-font-specification:'Product Sans';letter-spacing:0px;word-spacing:0px;clip-rule:nonzero;display:inline;overflow:visible;visibility:visible;isolation:auto;mix-blend-mode:normal;color-interpolation:sRGB;color-interpolation-filters:linearRGB;solid-color:#000000;solid-opacity:1;fill:#000000;fill-opacity:0.69999999;fill-rule:nonzero;stroke:none;stroke-width:1;stroke-linecap:butt;stroke-linejoin:miter;stroke-miterlimit:4;stroke-dasharray:none;stroke-dashoffset:0;stroke-opacity:1;color-rendering:auto;image-rendering:auto;shape-rendering:auto;text-rendering:auto;enable-background:accumulate"
       d="m 576.30815,117.7 10.05464,0 0,24.69946 -0.43716,7.43169 0.43716,0 q 2.29508,-3.93443 6.99454,-6.55738 4.80874,-2.62295 9.94535,-2.62295 9.83607,0 15.08197,5.68306 5.35519,5.57377 5.35519,15.95629 l 0,33.6612 -10.05464,0 0,-31.69399 q 0,-14.42623 -12.78689,-14.42623 -6.12022,0 -10.38251,5.13661 -4.15301,5.02733 -4.15301,11.80328 l 0,29.18033 -10.05464,0 0,-78.25137 z" />
    <path
       id="path4232"
       style="color:#000000;font-style:normal;font-variant:normal;font-weight:normal;font-stretch:normal;font-size:medium;line-height:125%;font-family:'Product Sans';-inkscape-font-specification:'Product Sans';letter-spacing:0px;word-spacing:0px;clip-rule:nonzero;display:inline;overflow:visible;visibility:visible;isolation:auto;mix-blend-mode:normal;color-interpolation:sRGB;color-interpolation-filters:linearRGB;solid-color:#000000;solid-opacity:1;fill:#000000;fill-opacity:0.69999999;fill-rule:nonzero;stroke:none;stroke-width:1;stroke-linecap:butt;stroke-linejoin:miter;stroke-miterlimit:4;stroke-dasharray:none;stroke-dashoffset:0;stroke-opacity:1;color-rendering:auto;image-rendering:auto;shape-rendering:auto;text-rendering:auto;enable-background:accumulate"
       d="m 659.69271,197.7 q -11.80328,0 -19.45355,-8.08743 -7.65027,-8.08743 -7.65027,-20.43716 0,-12.24043 7.43169,-20.32787 7.4317,-8.19672 19.0164,-8.19672 11.91256,0 18.9071,7.75957 7.10382,7.65027 7.10382,21.53005 l -0.10928,1.0929 -42.07651,0 q 0.21858,7.86885 5.2459,12.67759 5.02733,4.80875 12.02186,4.80875 9.61749,0 15.08197,-9.61749 l 8.96175,4.37158 q -3.60656,6.77596 -10.05465,10.6011 -6.3388,3.82513 -14.42623,3.82513 z m -16.06557,-34.97267 30.71038,0 q -0.43716,-5.57377 -4.59016,-9.18033 -4.04372,-3.71585 -10.92896,-3.71585 -5.68306,0 -9.83607,3.49727 -4.04372,3.49727 -5.35519,9.39891 z" />
    <path
       id="path4234"
       style="color:#000000;font-style:normal;font-variant:normal;font-weight:normal;font-stretch:normal;font-size:medium;line-height:125%;font-family:'Product Sans';-inkscape-font-specification:'Product Sans';letter-spacing:0px;word-spacing:0px;clip-rule:nonzero;display:inline;overflow:visible;visibility:visible;isolation:auto;mix-blend-mode:normal;color-interpolation:sRGB;color-interpolation-filters:linearRGB;solid-color:#000000;solid-opacity:1;fill:#000000;fill-opacity:0.69999999;fill-rule:nonzero;stroke:none;stroke-width:1;stroke-linecap:butt;stroke-linejoin:miter;stroke-miterlimit:4;stroke-dasharray:none;stroke-dashoffset:0;stroke-opacity:1;color-rendering:auto;image-rendering:auto;shape-rendering:auto;text-rendering:auto;enable-background:accumulate"
       d="m 704.19064,195.95137 -10.05464,0 0,-53.55191 9.61748,0 0,8.74317 0.43716,0 q 1.53006,-4.2623 6.22951,-7.21312 4.80874,-3.06011 9.39891,-3.06011 4.37158,0 7.43169,1.31148 l -3.06011,9.72677 q -1.85792,-0.76502 -5.90164,-0.76502 -5.68306,0 -9.94535,4.59016 -4.15301,4.59016 -4.15301,10.71038 l 0,29.5082 z" />
    <path
       id="path4236"
       style="color:#000000;font-style:normal;font-variant:normal;font-weight:normal;font-stretch:normal;font-size:medium;line-height:125%;font-family:'Product Sans';-inkscape-font-specification:'Product Sans';letter-spacing:0px;word-spacing:0px;clip-rule:nonzero;display:inline;overflow:visible;visibility:visible;isolation:auto;mix-blend-mode:normal;color-interpolation:sRGB;color-interpolation-filters:linearRGB;solid-color:#000000;solid-opacity:1;fill:#000000;fill-opacity:0.69999999;fill-rule:nonzero;stroke:none;stroke-width:1;stroke-linecap:butt;stroke-linejoin:miter;stroke-miterlimit:4;stroke-dasharray:none;stroke-dashoffset:0;stroke-opacity:1;color-rendering:auto;image-rendering:auto;shape-rendering:auto;text-rendering:auto;enable-background:accumulate"
       d="m 744.53387,117.7 0,78.25137 -10.05464,0 0,-78.25137 10.05464,0 z" />
    <path
       id="path4238"
       style="color:#000000;font-style:normal;font-variant:normal;font-weight:normal;font-stretch:normal;font-size:medium;line-height:125%;font-family:'Product Sans';-inkscape-font-specification:'Product Sans';letter-spacing:0px;word-spacing:0px;clip-rule:nonzero;display:inline;overflow:visible;visibility:visible;isolation:auto;mix-blend-mode:normal;color-interpolation:sRGB;color-interpolation-filters:linearRGB;solid-color:#000000;solid-opacity:1;fill:#000000;fill-opacity:0.69999999;fill-rule:nonzero;stroke:none;stroke-width:1;stroke-linecap:butt;stroke-linejoin:miter;stroke-miterlimit:4;stroke-dasharray:none;stroke-dashoffset:0;stroke-opacity:1;color-rendering:auto;image-rendering:auto;shape-rendering:auto;text-rendering:auto;enable-background:accumulate"
       d="m 763.36071,179.55793 q 0,3.93442 3.27869,6.55737 3.38798,2.62296 7.86886,2.62296 6.33879,0 11.25683,-4.69946 5.02732,-4.69945 5.02732,-11.03825 -4.69946,-3.71585 -13.11476,-3.71585 -6.12021,0 -10.27322,2.95082 -4.04372,2.95082 -4.04372,7.32241 z m 13.00547,-38.90711 q 11.14754,0 17.59563,6.01093 6.44809,5.90164 6.44809,16.28416 l 0,33.00546 -9.61749,0 0,-7.43169 -0.43716,0 Q 784.12574,197.7 773.74323,197.7 q -8.85246,0 -14.86339,-5.2459 -5.90164,-5.2459 -5.90164,-13.11475 0,-8.30601 6.22951,-13.22405 6.3388,-4.91803 16.8306,-4.91803 8.96175,0 14.7541,3.27869 l 0,-2.29508 q 0,-5.2459 -4.15301,-8.85246 -4.153,-3.71585 -9.72677,-3.71585 -8.4153,0 -13.33334,7.10383 l -8.85246,-5.57377 q 7.32241,-10.49181 21.63935,-10.49181 z" />
    <path
       id="path4240"
       style="color:#000000;font-style:normal;font-variant:normal;font-weight:normal;font-stretch:normal;font-size:medium;line-height:125%;font-family:'Product Sans';-inkscape-font-specification:'Product Sans';letter-spacing:0px;word-spacing:0px;clip-rule:nonzero;display:inline;overflow:visible;visibility:visible;isolation:auto;mix-blend-mode:normal;color-interpolation:sRGB;color-interpolation-filters:linearRGB;solid-color:#000000;solid-opacity:1;fill:#000000;fill-opacity:0.69999999;fill-rule:nonzero;stroke:none;stroke-width:1;stroke-linecap:butt;stroke-linejoin:miter;stroke-miterlimit:4;stroke-dasharray:none;stroke-dashoffset:0;stroke-opacity:1;color-rendering:auto;image-rendering:auto;shape-rendering:auto;text-rendering:auto;enable-background:accumulate"
       d="m 811.75041,142.39946 9.61748,0 0,7.43169 0.43716,0 q 2.29508,-3.93443 6.99454,-6.55738 4.80874,-2.62295 9.94535,-2.62295 9.83607,0 15.08197,5.68306 5.35519,5.57377 5.35519,15.95629 l 0,33.6612 -10.05464,0 0,-33.00546 q -0.32787,-13.11476 -13.22405,-13.11476 -6.01093,0 -10.05464,4.91803 -4.04372,4.80875 -4.04372,11.5847 l 0,29.61749 -10.05464,0 0,-53.55191 z" />
    <path
       id="path4242"
       style="color:#000000;font-style:normal;font-variant:normal;font-weight:normal;font-stretch:normal;font-size:medium;line-height:125%;font-family:'Product Sans';-inkscape-font-specification:'Product Sans';letter-spacing:0px;word-spacing:0px;clip-rule:nonzero;display:inline;overflow:visible;visibility:visible;isolation:auto;mix-blend-mode:normal;color-interpolation:sRGB;color-interpolation-filters:linearRGB;solid-color:#000000;solid-opacity:1;fill:#000000;fill-opacity:0.69999999;fill-rule:nonzero;stroke:none;stroke-width:1;stroke-linecap:butt;stroke-linejoin:miter;stroke-miterlimit:4;stroke-dasharray:none;stroke-dashoffset:0;stroke-opacity:1;color-rendering:auto;image-rendering:auto;shape-rendering:auto;text-rendering:auto;enable-background:accumulate"
       d="m 895.135,188.51968 q 7.4317,0 12.13115,-5.3552 4.91803,-5.35519 4.91803,-13.98907 0,-8.4153 -4.91803,-13.87978 -4.80874,-5.46448 -12.13115,-5.46448 -7.21311,0 -12.13114,5.46448 -4.91804,5.46448 -4.91804,13.87978 0,8.52459 4.91804,13.87979 4.91803,5.46448 12.13114,5.46448 z M 893.49566,197.7 q -10.4918,0 -18.03279,-8.30601 -7.43169,-8.4153 -7.43169,-20.21858 0,-11.80328 7.43169,-20.21858 7.54099,-8.30601 18.03279,-8.30601 5.90164,0 10.71038,2.51366 4.91804,2.51367 7.54099,6.66667 l 0.43715,0 -0.43715,-7.43169 0,-24.69946 10.05464,0 0,78.25137 -9.61749,0 0,-7.43169 -0.43715,0 q -2.62295,4.153 -7.54099,6.66666 Q 899.3973,197.7 893.49566,197.7 Z" />
    <path
       id="path4244"
       style="color:#000000;font-style:normal;font-variant:normal;font-weight:normal;font-stretch:normal;font-size:medium;line-height:125%;font-family:'Product Sans';-inkscape-font-specification:'Product Sans';letter-spacing:0px;word-spacing:0px;clip-rule:nonzero;display:inline;overflow:visible;visibility:visible;isolation:auto;mix-blend-mode:normal;color-interpolation:sRGB;color-interpolation-filters:linearRGB;solid-color:#000000;solid-opacity:1;fill:#000000;fill-opacity:0.69999999;fill-rule:nonzero;stroke:none;stroke-width:1;stroke-linecap:butt;stroke-linejoin:miter;stroke-miterlimit:4;stroke-dasharray:none;stroke-dashoffset:0;stroke-opacity:1;color-rendering:auto;image-rendering:auto;shape-rendering:auto;text-rendering:auto;enable-background:accumulate"
       d="m 974.40412,181.08798 q 0,6.99454 -6.12022,11.80328 -6.12022,4.80874 -15.40984,4.80874 -8.08743,0 -14.20765,-4.153 -6.12022,-4.2623 -8.74317,-11.14754 l 8.96175,-3.82514 q 1.96722,4.80874 5.68306,7.54098 3.82514,2.62296 8.30601,2.62296 4.80875,0 7.97815,-2.07651 3.27868,-2.0765 3.27868,-4.91803 0,-5.13661 -7.86885,-7.54098 l -9.18033,-2.29509 q -15.62841,-3.93442 -15.62841,-15.08196 0,-7.32241 5.90164,-11.69399 6.01093,-4.48088 15.30054,-4.48088 7.10383,0 12.78689,3.38798 5.79235,3.38798 8.08743,9.07104 l -8.96175,3.71585 q -1.53005,-3.38798 -5.02732,-5.24591 -3.38798,-1.96721 -7.65027,-1.96721 -3.93443,0 -7.10383,1.96721 -3.06011,1.96722 -3.06011,4.80875 0,4.59016 8.63388,6.55738 l 8.08743,2.0765 q 15.95629,3.93442 15.95629,16.06557 z" />
    <path
       id="XMLID_116_"
       class="st13"
       d="m 280.5,56.8 c 0,10.9 -3.2,19.7 -9.7,26.1 -7.4,7.7 -17,11.6 -28.8,11.6 -11.3,0 -20.9,-3.9 -28.8,-11.8 -7.9,-7.8 -11.9,-17.6 -11.9,-29.1 0,-11.5 4,-21.3 11.9,-29.1 7.9,-7.8 17.5,-11.8 28.8,-11.8 5.6,0 11,1.1 16.1,3.3 5.1,2.2 9.2,5.1 12.2,8.8 l -6.9,6.9 c -5.2,-6.2 -12.3,-9.3 -21.4,-9.3 -8.2,0 -15.4,2.9 -21.4,8.7 -6,5.8 -9,13.3 -9,22.6 0,9.3 3,16.8 9,22.6 6,5.8 13.1,8.7 21.4,8.7 8.8,0 16,-2.9 21.9,-8.8 3.8,-3.8 6,-9.1 6.6,-15.9 l -28.5,0 0,-9.4 38,0 c 0.3,2.1 0.5,4 0.5,5.9 z"
       style="fill:#000000;fill-opacity:0.69999999" />
    <path
       id="XMLID_118_"
       class="st13"
       d="m 290.4,92.8 0,-78.3 24,0 c 12,0 21.7,3.6 28.9,10.9 7.2,7.3 10.8,16.7 10.8,28.3 0,11.6 -3.6,21 -10.8,28.3 -7.2,7.3 -16.8,10.9 -28.9,10.9 l -24,0 z m 10.1,-9.6 13.9,0 c 9,0 16.2,-2.6 21.5,-7.8 5.3,-5.2 7.9,-12.4 7.9,-21.8 0,-9.3 -2.6,-16.5 -7.9,-21.7 -5.3,-5.2 -12.5,-7.8 -21.5,-7.8 l -13.9,0 0,59.1 z"
       style="fill:#000000;fill-opacity:0.69999999" />
    <path
       id="XMLID_121_"
       class="st13"
       d="m 439.5,56.8 c 0,10.9 -3.2,19.7 -9.7,26.1 -7.4,7.7 -17,11.6 -28.8,11.6 -11.3,0 -20.9,-3.9 -28.8,-11.8 -7.9,-7.8 -11.9,-17.6 -11.9,-29.1 0,-11.5 4,-21.3 11.9,-29.1 7.9,-7.8 17.5,-11.8 28.8,-11.8 5.6,0 11,1.1 16.1,3.3 5.1,2.2 9.2,5.1 12.2,8.8 l -6.9,6.9 c -5.2,-6.2 -12.3,-9.3 -21.4,-9.3 -8.2,0 -15.4,2.9 -21.4,8.7 -6,5.8 -9,13.3 -9,22.6 0,9.3 3,16.8 9,22.6 6,5.8 13.1,8.7 21.4,8.7 8.8,0 16,-2.9 21.9,-8.8 3.8,-3.8 6,-9.1 6.6,-15.9 l -28.5,0 0,-9.4 38,0 c 0.3,2.1 0.5,4 0.5,5.9 z"
       style="fill:#000000;fill-opacity:0.69999999" />
    <path
       id="XMLID_123_"
       class="st13"
       d="m 475.8,92.8 0,-78.3 24,0 c 12,0 21.7,3.6 28.9,10.9 7.2,7.3 10.8,16.7 10.8,28.3 0,11.6 -3.6,21 -10.8,28.3 -7.2,7.3 -16.8,10.9 -28.9,10.9 l -24,0 z m 10.1,-9.6 13.9,0 c 9,0 16.2,-2.6 21.5,-7.8 5.3,-5.2 7.9,-12.4 7.9,-21.8 0,-9.3 -2.6,-16.5 -7.9,-21.7 -5.3,-5.2 -12.5,-7.8 -21.5,-7.8 l -13.9,0 0,59.1 z"
       style="fill:#000000;fill-opacity:0.69999999" />
    <path
       id="XMLID_126_"
       class="st13"
       d="m 572.4,94.6 c -8.1,0 -14.7,-2.7 -19.7,-8.1 -5.1,-5.4 -7.6,-12.2 -7.6,-20.5 0,-7.8 2.5,-14.5 7.4,-20.1 4.9,-5.6 11.2,-8.4 18.9,-8.4 7.9,0 14.3,2.6 19.1,7.8 4.8,5.2 7.2,12.1 7.2,20.8 l -0.1,1.9 -42.3,0 c 0.3,5.4 2.1,9.7 5.4,12.8 3.3,3.1 7.2,4.7 11.6,4.7 7.2,0 12.1,-3.1 14.7,-9.2 l 9,3.7 c -1.8,4.2 -4.6,7.6 -8.6,10.4 -4.2,2.8 -9.1,4.2 -15,4.2 z m 14.5,-35 c -0.2,-3.1 -1.6,-6 -4.2,-8.8 -2.6,-2.8 -6.4,-4.2 -11.5,-4.2 -3.7,0 -6.9,1.2 -9.7,3.5 -2.7,2.3 -4.6,5.5 -5.6,9.4 l 31,0 z"
       style="fill:#000000;fill-opacity:0.69999999" />
    <path
       id="XMLID_129_"
       class="st13"
       d="M 618.7,92.8 597,39.2 l 11,0 15.8,41.6 0.2,0 16,-41.6 10.7,0 -21.9,53.6 -10.1,0 z"
       style="fill:#000000;fill-opacity:0.69999999" />
    <path
       id="XMLID_131_"
       class="st13"
       d="m 666.6,92.8 -10.1,0 0,-78.3 45.7,0 0,9.6 -35.7,0 0,25.7 32.2,0 0,9.4 -32.2,0 0,33.6 z"
       style="fill:#000000;fill-opacity:0.69999999" />
    <path
       id="XMLID_133_"
       class="st13"
       d="m 732.7,94.6 c -8.1,0 -14.7,-2.7 -19.7,-8.1 -5.1,-5.4 -7.6,-12.2 -7.6,-20.5 0,-7.8 2.5,-14.5 7.4,-20.1 4.9,-5.6 11.2,-8.4 18.9,-8.4 7.9,0 14.3,2.6 19.1,7.8 4.8,5.2 7.2,12.1 7.2,20.8 l -0.1,1.9 -42.3,0 c 0.3,5.4 2.1,9.7 5.4,12.8 3.3,3.1 7.2,4.7 11.6,4.7 7.2,0 12.1,-3.1 14.7,-9.2 l 9,3.7 c -1.8,4.2 -4.6,7.6 -8.6,10.4 -4.3,2.8 -9.2,4.2 -15,4.2 z m 14.4,-35 c -0.2,-3.1 -1.6,-6 -4.2,-8.8 -2.6,-2.8 -6.4,-4.2 -11.5,-4.2 -3.7,0 -6.9,1.2 -9.7,3.5 -2.7,2.3 -4.6,5.5 -5.6,9.4 l 31,0 z"
       style="fill:#000000;fill-opacity:0.69999999" />
    <path
       id="XMLID_136_"
       class="st13"
       d="m 784.5,94.6 c -6,0 -10.9,-1.5 -14.8,-4.4 -3.9,-2.9 -6.8,-6.6 -8.6,-10.9 l 9,-3.7 c 2.8,6.7 7.7,10.1 14.5,10.1 3.1,0 5.7,-0.7 7.7,-2.1 2,-1.4 3,-3.2 3,-5.5 0,-3.5 -2.4,-5.9 -7.3,-7.1 l -10.8,-2.6 c -3.4,-0.9 -6.7,-2.5 -9.7,-5 -3.1,-2.4 -4.6,-5.7 -4.6,-9.9 0,-4.7 2.1,-8.6 6.3,-11.5 4.2,-3 9.2,-4.4 14.9,-4.4 4.7,0 9,1.1 12.7,3.2 3.7,2.2 6.4,5.2 8,9.2 l -8.8,3.6 c -2,-4.7 -6.1,-7.1 -12.2,-7.1 -3,0 -5.5,0.6 -7.5,1.9 -2,1.2 -3.1,2.9 -3.1,5 0,3.1 2.4,5.1 7.1,6.2 l 10.6,2.5 c 5,1.2 8.8,3.2 11.2,6 2.4,2.8 3.6,6.1 3.6,9.6 0,4.8 -2,8.8 -5.9,12 -4,3.3 -9.1,4.9 -15.3,4.9 z"
       style="fill:#000000;fill-opacity:0.69999999" />
    <path
       id="XMLID_138_"
       class="st13"
       d="m 835.9,93.7 c -5.6,0 -9.9,-1.5 -12.9,-4.5 -3,-3 -4.4,-7.2 -4.4,-12.7 l 0,-28.1 -9.4,0 0,-9.2 9.4,0 0,-16.4 10.1,0 0,16.4 13.1,0 0,9.2 -13.1,0 0,27.3 c 0,5.8 2.4,8.8 7.2,8.8 1.8,0 3.4,-0.3 4.6,-0.9 l 3.5,8.6 c -2.2,1 -4.9,1.5 -8.1,1.5 z"
       style="fill:#000000;fill-opacity:0.69999999" />
  </g>
</svg>
