<?xml version="1.0" encoding="utf-8"?>
<!-- Generator: Adobe Illustrator 19.1.0, SVG Export Plug-In . SVG Version: 6.00 Build 0)  -->
<svg version="1.1"
	 id="dark" xmlns:rdf="http://www.w3.org/1999/02/22-rdf-syntax-ns#" xmlns:dc="http://purl.org/dc/elements/1.1/" xmlns:sodipodi="http://sodipodi.sourceforge.net/DTD/sodipodi-0.dtd" xmlns:svg="http://www.w3.org/2000/svg" xmlns:inkscape="http://www.inkscape.org/namespaces/inkscape" xmlns:cc="http://creativecommons.org/ns#" sodipodi:docname="–ù–æ–≤–∏–π –¥–æ–∫—É–º–µ–Ω—Ç 1" inkscape:version="0.48.2 r9819"
	 xmlns="http://www.w3.org/2000/svg" xmlns:xlink="http://www.w3.org/1999/xlink" x="0px" y="0px" viewBox="95.2 1678.4 613.9 200"
	 style="enable-background:new 95.2 1678.4 613.9 200;" xml:space="preserve">
<style type="text/css">
	.st0{fill:#F6C25B;}
	.st1{fill:#0A985C;}
	.st2{fill:#5586C5;}
	.st3{fill:#D9423E;}
	.st4{fill:#168B58;}
	.st5{fill:#D7AB56;}
	.st6{fill:#4E4E4E;}
</style>
<g>
	<g>
		<path class="st0" d="M122.1,1878.4h22.6c5.4,0,12-3.8,14.8-8.4l19.1-31.7c2.3-4.7,2.2-11.4-0.4-15.7l-11.3-18.6L122.1,1878.4z"/>
		<path class="st1" d="M146.4,1786.8L96.1,1871c-1.9,4.1,0.1,7.5,5.1,7.5h20.9l44.8-74.4l-20.5-33.9
			C149.2,1774.6,149.2,1782.2,146.4,1786.8"/>
		<path class="st2" d="M101.1,1678.4c-5.4,0-7.5,3.8-4.7,8.4l81.8,135.8c2.6,4.3,2.6,11.1,0.4,15.7l19.9-33.1l-76.3-126.8
			L101.1,1678.4L101.1,1678.4z"/>
		<path class="st3" d="M122.1,1678.4l76.3,126.8l11.1-18.4c2.8-4.6,2.8-12.1,0-16.7l-50-83.3c-2.8-4.6-9.4-8.4-14.8-8.4H122.1
			L122.1,1678.4z"/>
	</g>
</g>
<path class="st4" d="M146.4,1786.8l-12,20.1l21.5,15.3l11-18.2l-20.5-33.9C149.2,1774.6,149.2,1782.2,146.4,1786.8z"/>
<path class="st5" d="M166.9,1804l-11,18.2l22.6,16.1c2.3-4.7,2.2-11.4-0.4-15.7L166.9,1804z"/>
<g>
	<path class="st6" d="M278.8,1736.2h23.1v28.9c-6.3,2.1-13.2,3.2-20.7,3.2c-8.3,0-14.6-2.4-19.1-7.2c-4.5-4.8-6.8-11.6-6.8-20.5
		c0-8.6,2.5-15.4,7.4-20.2c4.9-4.8,11.8-7.2,20.7-7.2c3.4,0,6.5,0.3,9.5,1c3,0.6,5.6,1.4,7.8,2.4l-4.6,11.4
		c-3.9-1.9-8.1-2.9-12.7-2.9c-4.2,0-7.5,1.4-9.8,4.1c-2.3,2.7-3.5,6.7-3.5,11.8c0,5,1,8.8,3.1,11.4c2.1,2.6,5.1,3.9,9,3.9
		c2.1,0,4.1-0.2,5.9-0.6v-8.4h-9.6V1736.2z"/>
	<path class="st6" d="M353.4,1739.7c0,8.9-2.5,15.8-7.4,20.7s-11.8,7.3-20.7,7.3h-17.3V1714h18.5c8.6,0,15.2,2.2,19.9,6.6
		S353.4,1731.4,353.4,1739.7z M338.4,1740.2c0-4.9-1-8.5-2.9-10.9c-1.9-2.4-4.9-3.6-8.8-3.6h-4.2v30h3.2c4.4,0,7.6-1.3,9.7-3.8
		C337.3,1749.3,338.4,1745.4,338.4,1740.2z"/>
	<path class="st6" d="M379.6,1736.2h23.1v28.9c-6.3,2.1-13.2,3.2-20.7,3.2c-8.3,0-14.6-2.4-19.1-7.2c-4.5-4.8-6.8-11.6-6.8-20.5
		c0-8.6,2.5-15.4,7.4-20.2s11.8-7.2,20.7-7.2c3.4,0,6.5,0.3,9.5,1c3,0.6,5.6,1.4,7.8,2.4L397,1728c-3.9-1.9-8.1-2.9-12.7-2.9
		c-4.2,0-7.5,1.4-9.8,4.1c-2.3,2.7-3.5,6.7-3.5,11.8c0,5,1,8.8,3.1,11.4c2.1,2.6,5.1,3.9,9,3.9c2.1,0,4.1-0.2,5.9-0.6v-8.4h-9.6
		V1736.2z"/>
	<path class="st6" d="M483.4,1739.7c0,8.9-2.5,15.8-7.4,20.7s-11.8,7.3-20.7,7.3H438V1714h18.5c8.6,0,15.2,2.2,19.9,6.6
		S483.4,1731.4,483.4,1739.7z M468.4,1740.2c0-4.9-1-8.5-2.9-10.9c-1.9-2.4-4.9-3.6-8.8-3.6h-4.2v30h3.2c4.4,0,7.6-1.3,9.7-3.8
		C467.4,1749.3,468.4,1745.4,468.4,1740.2z"/>
	<path class="st6" d="M507.3,1768.3c-6.9,0-12.3-1.8-16.1-5.5c-3.8-3.7-5.7-8.9-5.7-15.7c0-7,1.8-12.4,5.3-16.1s8.6-5.6,15.2-5.6
		c6.2,0,11.1,1.6,14.5,4.9c3.4,3.3,5.1,8,5.1,14.1v6.4H500c0.1,2.3,0.9,4.1,2.5,5.5c1.6,1.3,3.8,2,6.5,2c2.5,0,4.8-0.2,6.9-0.7
		c2.1-0.5,4.4-1.3,6.9-2.4v10.3c-2.2,1.1-4.6,1.9-7,2.4S510.6,1768.3,507.3,1768.3z M506.5,1735.1c-1.7,0-3.1,0.5-4.2,1.6
		c-1.1,1.1-1.8,2.7-2,5h12.3c0-2-0.6-3.6-1.7-4.8C509.8,1735.7,508.3,1735.1,506.5,1735.1z"/>
	<path class="st6" d="M539.6,1767.6l-15.8-41.5h14.9l7,24.5c0,0.1,0.1,0.3,0.1,0.6s0.1,0.6,0.2,1c0.1,0.4,0.1,0.8,0.2,1.3
		c0.1,0.5,0.1,0.9,0.1,1.3h0.3c0-1.3,0.2-2.6,0.7-4.1l7.4-24.6h14.9l-15.8,41.5H539.6z"/>
	<path class="st6" d="M584.8,1767.6h-14.2V1714h31.6v11.6h-17.4v10.2h16v11.6h-16V1767.6z"/>
	<path class="st6" d="M625.3,1768.3c-6.9,0-12.3-1.8-16.1-5.5c-3.8-3.7-5.7-8.9-5.7-15.7c0-7,1.8-12.4,5.3-16.1s8.6-5.6,15.2-5.6
		c6.2,0,11.1,1.6,14.5,4.9c3.4,3.3,5.1,8,5.1,14.1v6.4h-25.6c0.1,2.3,0.9,4.1,2.5,5.5c1.6,1.3,3.8,2,6.5,2c2.5,0,4.8-0.2,6.9-0.7
		c2.1-0.5,4.4-1.3,6.9-2.4v10.3c-2.2,1.1-4.6,1.9-7,2.4S628.6,1768.3,625.3,1768.3z M624.4,1735.1c-1.7,0-3.1,0.5-4.2,1.6
		c-1.1,1.1-1.8,2.7-2,5h12.3c0-2-0.6-3.6-1.7-4.8C627.7,1735.7,626.3,1735.1,624.4,1735.1z"/>
	<path class="st6" d="M678.8,1754.8c0,4.4-1.5,7.8-4.5,10.1c-3,2.3-7.4,3.4-13,3.4c-3.1,0-5.7-0.2-8-0.5c-2.3-0.3-4.6-0.9-7-1.8
		v-11.5c2.2,1,4.7,1.8,7.3,2.4c2.6,0.6,5,1,7.1,1c3.1,0,4.7-0.7,4.7-2.1c0-0.7-0.4-1.4-1.3-2s-3.4-1.7-7.6-3.4
		c-3.8-1.6-6.5-3.3-8-5.3c-1.5-2-2.3-4.5-2.3-7.6c0-3.9,1.5-6.9,4.5-9c3-2.1,7.2-3.2,12.6-3.2c2.7,0,5.3,0.3,7.7,0.9
		c2.4,0.6,4.9,1.5,7.5,2.6l-3.9,9.2c-1.9-0.9-3.9-1.6-6-2.2c-2.1-0.6-3.9-0.9-5.2-0.9c-2.3,0-3.5,0.6-3.5,1.7c0,0.7,0.4,1.3,1.2,1.8
		c0.8,0.5,3.2,1.5,7.1,3.1c2.9,1.2,5.1,2.4,6.5,3.5c1.4,1.1,2.5,2.5,3.1,4C678.5,1750.7,678.8,1752.6,678.8,1754.8z"/>
	<path class="st6" d="M702.2,1757c1.9,0,4.2-0.5,6.9-1.4v10.4c-1.9,0.8-3.8,1.4-5.5,1.8c-1.7,0.4-3.8,0.5-6.1,0.5
		c-4.8,0-8.3-1.2-10.4-3.5c-2.1-2.4-3.2-6-3.2-10.9v-17.1h-5v-5.8l6.4-4.5l3.7-8.7h9.4v8.3h10.2v10.7h-10.2v16.2
		C698.3,1755.6,699.6,1757,702.2,1757z"/>
</g>
<g>
	<path class="st6" d="M277.3,1838.2h-6.5v-34.4H259v-5.6h30.1v5.6h-11.8V1838.2z"/>
	<path class="st6" d="M321.3,1838.2h-6.5v-18.6c0-2.3-0.5-4.1-1.4-5.2c-0.9-1.1-2.4-1.7-4.5-1.7c-2.7,0-4.7,0.8-5.9,2.4
		c-1.3,1.6-1.9,4.3-1.9,8.1v15h-6.4v-42.5h6.4v10.8c0,1.7-0.1,3.6-0.3,5.6h0.4c0.9-1.5,2.1-2.6,3.7-3.4c1.6-0.8,3.4-1.2,5.5-1.2
		c7.3,0,11,3.7,11,11.1V1838.2z"/>
	<path class="st6" d="M343.6,1838.7c-4.7,0-8.4-1.4-11-4.1c-2.7-2.7-4-6.5-4-11.3c0-4.9,1.2-8.8,3.7-11.6c2.5-2.8,5.8-4.2,10.1-4.2
		c4,0,7.1,1.2,9.5,3.6c2.3,2.4,3.5,5.8,3.5,10v3.5h-20.2c0.1,2.9,0.9,5.2,2.4,6.8c1.5,1.6,3.6,2.4,6.3,2.4c1.8,0,3.4-0.2,5-0.5
		c1.5-0.3,3.2-0.9,5-1.7v5.2c-1.6,0.7-3.2,1.3-4.8,1.6C347.5,1838.5,345.7,1838.7,343.6,1838.7z M342.4,1812.2c-2,0-3.7,0.6-4.9,1.9
		c-1.2,1.3-2,3.2-2.2,5.7h13.7c0-2.5-0.6-4.4-1.8-5.7C346.1,1812.9,344.5,1812.2,342.4,1812.2z"/>
	<path class="st6" d="M411.6,1838.2h-8l-19.7-31.9h-0.2l0.1,1.8c0.3,3.4,0.4,6.5,0.4,9.3v20.8h-5.9v-40h7.9l19.6,31.7h0.2
		c0-0.4-0.1-1.9-0.2-4.6c-0.1-2.6-0.2-4.7-0.2-6.2v-20.9h6V1838.2z"/>
	<path class="st6" d="M434.8,1838.7c-4.7,0-8.4-1.4-11-4.1c-2.7-2.7-4-6.5-4-11.3c0-4.9,1.2-8.8,3.7-11.6c2.5-2.8,5.8-4.2,10.1-4.2
		c4,0,7.1,1.2,9.5,3.6c2.3,2.4,3.5,5.8,3.5,10v3.5h-20.2c0.1,2.9,0.9,5.2,2.4,6.8c1.5,1.6,3.6,2.4,6.3,2.4c1.8,0,3.4-0.2,5-0.5
		c1.5-0.3,3.2-0.9,5-1.7v5.2c-1.6,0.7-3.2,1.3-4.8,1.6C438.7,1838.5,436.9,1838.7,434.8,1838.7z M433.6,1812.2c-2,0-3.7,0.6-4.9,1.9
		c-1.2,1.3-2,3.2-2.2,5.7h13.7c0-2.5-0.6-4.4-1.8-5.7C437.3,1812.9,435.7,1812.2,433.6,1812.2z"/>
	<path class="st6" d="M465.3,1833.5c1.6,0,3.1-0.2,4.7-0.7v4.8c-0.7,0.3-1.6,0.6-2.7,0.8c-1.1,0.2-2.3,0.3-3.5,0.3
		c-6.1,0-9.1-3.2-9.1-9.6v-16.3h-4.1v-2.8l4.4-2.4l2.2-6.4h4v6.7h8.6v4.9h-8.6v16.2c0,1.5,0.4,2.7,1.2,3.4
		C463,1833.1,464,1833.5,465.3,1833.5z"/>
	<path class="st6" d="M502.8,1838.2h-6.5v-18.6c0-2.3-0.5-4.1-1.4-5.2c-0.9-1.1-2.4-1.7-4.5-1.7c-2.7,0-4.7,0.8-5.9,2.4
		c-1.3,1.6-1.9,4.3-1.9,8.1v15h-6.4v-42.5h6.4v10.8c0,1.7-0.1,3.6-0.3,5.6h0.4c0.9-1.5,2.1-2.6,3.7-3.4c1.6-0.8,3.4-1.2,5.5-1.2
		c7.3,0,11,3.7,11,11.1V1838.2z"/>
	<path class="st6" d="M525.1,1838.7c-4.7,0-8.4-1.4-11-4.1c-2.7-2.7-4-6.5-4-11.3c0-4.9,1.2-8.8,3.7-11.6c2.5-2.8,5.8-4.2,10.1-4.2
		c4,0,7.1,1.2,9.5,3.6c2.3,2.4,3.5,5.8,3.5,10v3.5h-20.2c0.1,2.9,0.9,5.2,2.4,6.8c1.5,1.6,3.6,2.4,6.3,2.4c1.8,0,3.4-0.2,5-0.5
		c1.5-0.3,3.2-0.9,5-1.7v5.2c-1.6,0.7-3.2,1.3-4.8,1.6C529,1838.5,527.2,1838.7,525.1,1838.7z M524,1812.2c-2,0-3.7,0.6-4.9,1.9
		c-1.2,1.3-2,3.2-2.2,5.7h13.7c0-2.5-0.6-4.4-1.8-5.7C527.6,1812.9,526,1812.2,524,1812.2z"/>
	<path class="st6" d="M559.7,1807.4c1.3,0,2.4,0.1,3.2,0.3l-0.6,6c-0.9-0.2-1.9-0.3-2.8-0.3c-2.6,0-4.7,0.8-6.2,2.5
		c-1.6,1.7-2.4,3.9-2.4,6.5v15.8h-6.4v-30.2h5l0.8,5.3h0.3c1-1.8,2.3-3.2,3.9-4.3C556.1,1807.9,557.8,1807.4,559.7,1807.4z"/>
	<path class="st6" d="M575.1,1838.2h-6.4v-42.5h6.4V1838.2z"/>
	<path class="st6" d="M603.4,1838.2l-1.3-4.2h-0.2c-1.5,1.8-2.9,3.1-4.4,3.8s-3.4,1-5.7,1c-3,0-5.3-0.8-7-2.4
		c-1.7-1.6-2.5-3.9-2.5-6.8c0-3.1,1.2-5.5,3.5-7.1c2.3-1.6,5.8-2.5,10.6-2.6l5.2-0.2v-1.6c0-1.9-0.5-3.4-1.4-4.3s-2.3-1.4-4.2-1.4
		c-1.5,0-3,0.2-4.5,0.7c-1.4,0.5-2.8,1-4.1,1.6l-2.1-4.6c1.6-0.9,3.4-1.5,5.4-2c2-0.4,3.8-0.7,5.5-0.7c3.8,0,6.7,0.8,8.7,2.5
		c2,1.7,2.9,4.3,2.9,7.9v20.4H603.4z M593.8,1833.8c2.3,0,4.2-0.7,5.6-2c1.4-1.3,2.1-3.1,2.1-5.5v-2.6l-3.9,0.2
		c-3,0.1-5.2,0.6-6.6,1.5c-1.4,0.9-2.1,2.3-2.1,4.1c0,1.3,0.4,2.4,1.2,3.1C591,1833.4,592.2,1833.8,593.8,1833.8z"/>
	<path class="st6" d="M643.7,1838.2h-6.5v-18.6c0-2.3-0.5-4.1-1.4-5.2c-0.9-1.1-2.4-1.7-4.5-1.7c-2.7,0-4.7,0.8-6,2.4
		c-1.3,1.6-1.9,4.3-1.9,8.1v15.1h-6.4v-30.2h5l0.9,4h0.3c0.9-1.4,2.2-2.6,3.9-3.3c1.7-0.8,3.5-1.2,5.6-1.2c7.3,0,10.9,3.7,10.9,11.1
		V1838.2z"/>
	<path class="st6" d="M663,1838.7c-3.8,0-6.7-1.4-8.8-4.1c-2.1-2.7-3.2-6.6-3.2-11.5c0-5,1.1-8.8,3.2-11.6c2.1-2.8,5.1-4.1,8.9-4.1
		c4,0,7,1.5,9.1,4.4h0.3c-0.3-2.2-0.5-3.9-0.5-5.1v-11h6.5v42.5h-5l-1.1-4h-0.3C670,1837.2,667,1838.7,663,1838.7z M664.7,1833.5
		c2.6,0,4.6-0.7,5.8-2.2c1.2-1.5,1.8-3.9,1.9-7.2v-0.9c0-3.8-0.6-6.5-1.9-8.1c-1.2-1.6-3.2-2.4-5.8-2.4c-2.3,0-4,0.9-5.2,2.7
		c-1.2,1.8-1.8,4.4-1.8,7.8c0,3.4,0.6,5.9,1.8,7.7C660.6,1832.6,662.4,1833.5,664.7,1833.5z"/>
	<path class="st6" d="M708.2,1829.5c0,3-1.1,5.2-3.2,6.8c-2.2,1.6-5.2,2.4-9.2,2.4c-4,0-7.3-0.6-9.7-1.8v-5.6
		c3.6,1.6,6.9,2.5,9.9,2.5c4,0,5.9-1.2,5.9-3.6c0-0.8-0.2-1.4-0.7-1.9c-0.4-0.5-1.2-1-2.2-1.6c-1-0.5-2.4-1.2-4.2-1.9
		c-3.5-1.3-5.8-2.7-7.1-4c-1.2-1.3-1.8-3.1-1.8-5.2c0-2.6,1-4.6,3.1-6c2.1-1.4,4.9-2.1,8.5-2.1c3.6,0,6.9,0.7,10.1,2.2l-2.1,4.8
		c-3.3-1.3-6-2-8.2-2c-3.4,0-5.1,1-5.1,2.9c0,0.9,0.4,1.8,1.3,2.4c0.9,0.7,2.8,1.6,5.8,2.7c2.5,1,4.3,1.9,5.4,2.7
		c1.1,0.8,2,1.7,2.5,2.8C707.9,1826.8,708.2,1828.1,708.2,1829.5z"/>
</g>
</svg>
