<?xml version="1.0" encoding="UTF-8" standalone="no"?>
<svg
   xmlns:sketch="http://www.bohemiancoding.com/sketch/ns"
   xmlns:dc="http://purl.org/dc/elements/1.1/"
   xmlns:cc="http://creativecommons.org/ns#"
   xmlns:rdf="http://www.w3.org/1999/02/22-rdf-syntax-ns#"
   xmlns:svg="http://www.w3.org/2000/svg"
   xmlns="http://www.w3.org/2000/svg"
   id="svg2"
   version="1.1"
   viewBox="0 0 220 85"
   height="85"
   width="220">
  <metadata
     id="metadata26">
    <rdf:RDF>
      <cc:Work
         rdf:about="">
        <dc:format>image/svg+xml</dc:format>
        <dc:type
           rdf:resource="http://purl.org/dc/dcmitype/StillImage" />
        <dc:title>logo-desktop</dc:title>
      </cc:Work>
    </rdf:RDF>
  </metadata>
  <!-- Generator: Sketch 3.3.3 (12072) - http://www.bohemiancoding.com/sketch -->
  <title
     id="title4">logo-desktop</title>
  <desc
     id="desc6">Created with Sketch.</desc>
  <defs
     id="defs8" />
  <g
     style="fill:#404040;fill-rule:evenodd;stroke:none;stroke-width:1"
     sketch:type="MSPage"
     id="Styles">
    <g
       style="fill:#404040"
       transform="translate(-89,-216)"
       sketch:type="MSArtboardGroup"
       id="Components">
      <g
         style="fill:#404040"
         transform="translate(-1,166)"
         sketch:type="MSLayerGroup"
         id="Header-inverted">
        <g
           style="fill:#404040"
           sketch:type="MSShapeGroup"
           id="navbar-inverted">
          <g
             style="fill:#404040"
             transform="translate(90,50)"
             id="logo-desktop">
            <path
               style="fill:#404040"
               id="Fill-1"
               d="m 42.568459,84.918863 c -11.360032,0 -22.040039,-4.412131 -30.072597,-12.423235 C 4.463038,64.484392 0.03922364,53.832778 0.03922364,42.503088 0.03922364,31.173531 4.463038,20.52205 12.495862,12.510814 20.52842,4.4994449 31.208427,0.08757915 42.568459,0.08757915 c 5.673829,0 11.184271,1.09686245 16.377919,3.25980195 0.285262,0.1188953 0.568261,0.2405773 0.849531,0.3649131 1.386126,0.6137175 2.010934,2.2318086 1.395573,3.6140994 -0.615495,1.382689 -2.238185,2.0051644 -3.623779,1.391845 C 57.323022,8.6099589 57.076878,8.5043331 56.82927,8.4010959 52.310457,6.5189404 47.511971,5.5645932 42.568459,5.5645932 c -20.422537,0 -37.0375533,16.5706378 -37.0375533,36.9384948 0,20.368123 16.6150163,36.938761 37.0375533,36.938761 20.422671,0 37.037554,-16.570638 37.037554,-36.938761 0,-4.905759 -0.947989,-9.669534 -2.817489,-14.158628 -0.167778,-0.402997 -0.345401,-0.808648 -0.527548,-1.204877 -0.631194,-1.375125 -0.02528,-3.000515 1.353529,-3.630156 1.378542,-0.629375 3.008151,-0.02534 3.639744,1.349781 0.20889,0.455146 0.412592,0.920642 0.605649,1.38375 2.148641,5.159076 3.237797,10.62972 3.237797,16.26013 0,11.32969 -4.423814,21.981304 -12.456505,29.99254 -8.032558,8.011104 -18.712832,12.423235 -30.072731,12.423235 z M 76.408397,18.006272 c 0,1.512333 -1.229392,2.738441 -2.745774,2.738441 -1.516517,0 -2.745908,-1.226108 -2.745908,-2.738441 0,-1.512465 1.229391,-2.738573 2.745908,-2.738573 1.516382,0 2.745774,1.226108 2.745774,2.738573 z m -6.698588,-6.722097 c 0,1.512465 -1.229392,2.738441 -2.745908,2.738441 -1.516382,0 -2.745774,-1.225976 -2.745774,-2.738441 0,-1.5124655 1.229392,-2.7385735 2.745774,-2.7385735 1.516516,0 2.745908,1.226108 2.745908,2.7385735 z" />
            <path
               style="fill:#404040"
               id="Fill-4"
               d="m 62.555122,40.619606 -5.33e-4,0 c -0.0057,-6.219712 -5.080953,-11.278071 -11.318785,-11.278071 -3.424202,0 -6.495685,1.526531 -8.573011,3.930446 -2.077326,-2.403915 -5.14881,-3.930446 -8.573012,-3.930446 -6.237832,0 -11.312931,5.058359 -11.318786,11.278071 l -1.33e-4,0 0,0.0085 c 0,6.64e-4 -1.33e-4,0.0015 -1.33e-4,0.0021 l 1.33e-4,0 0,12.34176 0,5.31e-4 c 0,1.512597 1.229525,2.738839 2.746307,2.738839 1.516649,0 2.746174,-1.226242 2.746174,-2.738839 0,-0.0023 -2.66e-4,-0.0044 -2.66e-4,-0.0066 l 0,-12.346271 -4e-4,0 c 0.0059,-3.199691 2.617514,-5.801057 5.827104,-5.801057 3.209724,0 5.821383,2.601764 5.826971,5.801588 l 0,12.351844 0,5.31e-4 c 0,1.512597 1.229525,2.738839 2.746173,2.738839 1.516782,0 2.746307,-1.226242 2.746307,-2.738839 0,-0.0021 -2.66e-4,-0.004 -2.66e-4,-0.006 l 0,-12.346802 c 0.0057,-3.19969 2.617247,-5.801189 5.826838,-5.801189 3.209723,0 5.821382,2.601366 5.827104,5.801057 l 0,12.345342 c 0,0.0025 -4e-4,0.005 -4e-4,0.0076 0,1.512597 1.229525,2.738839 2.746307,2.738839 1.516649,0 2.746174,-1.226242 2.746174,-2.738839 l 0,-5.31e-4 1.33e-4,0 0,-12.352375" />
            <g
               style="fill:#404040"
               transform="translate(98.494949,33)"
               id="Group-Copy">
              <path
                 style="fill:#404040"
                 id="Fill-6"
                 d="m 24.247184,4.7509149 c 0.284219,-0.9200454 0.711162,-1.7236658 1.280418,-2.4116822 0.568848,-0.6878796 1.28464,-1.2234898 2.147376,-1.60792506 0.862328,-0.38375128 1.853896,-0.57624255 2.974296,-0.57624255 0.853612,0 1.667185,0.13434691 2.440584,0.40181018 0.773671,0.26814691 1.453782,0.65244543 2.04047,1.15262213 0.587097,0.5001764 1.053941,1.1165044 1.400671,1.8487102 0.346728,0.7327531 0.520092,1.5544324 0.520092,2.4657222 0,0.9467237 -0.151302,1.7596469 -0.453498,2.4383604 -0.302468,0.6791236 -0.702854,1.2821811 -1.200341,1.8084878 -0.498167,0.527402 -1.062793,1.004868 -1.693741,1.43404 -0.63163,0.428625 -1.267208,0.853146 -1.907417,1.272468 -0.639937,0.420416 -1.26285,0.871068 -1.867243,1.353185 -0.604664,0.482665 -1.138103,1.045637 -1.600318,1.688232 l 8.829328,0 0,3.269343 -13.711041,0 c 0,-1.089279 0.155525,-2.03655 0.466981,-2.84017 0.310776,-0.804305 0.733633,-1.523104 1.267072,-2.15749 0.533439,-0.633977 1.160438,-1.218975 1.880588,-1.755132 0.720014,-0.536158 1.480475,-1.080524 2.280703,-1.634604 0.408693,-0.285658 0.844351,-0.576379 1.30711,-0.870657 0.462214,-0.294825 0.884254,-0.6204323 1.266935,-0.978053 0.382274,-0.3570734 0.702446,-0.7595676 0.960246,-1.2061145 0.257663,-0.4460001 0.386767,-0.9554797 0.386767,-1.5270706 0,-0.9112898 -0.262566,-1.6213324 -0.786744,-2.130812 -0.524724,-0.5087956 -1.196256,-0.7635353 -2.014187,-0.7635353 -0.551416,0 -1.017988,0.1296957 -1.400261,0.3885397 -0.382682,0.2592545 -0.689509,0.5989531 -0.920207,1.0181381 -0.231516,0.4198692 -0.395892,0.8846121 -0.493401,1.3934077 -0.09819,0.5094793 -0.146808,1.0141705 -0.146808,1.5143469 l -3.627851,0 c -0.03582,-1.0717676 0.08893,-2.068016 0.373421,-2.9879251" />
              <path
                 style="fill:#404040"
                 id="Fill-12"
                 d="m 96.680139,5.4341429 3.788001,0 0,13.8539031 -3.788001,0 0,-13.8539031 0,0 z m 0,-5.27907781 3.788001,0 0,3.13499531 -3.788001,0 0,-3.13499531 0,0 z" />
              <path
                 style="fill:#404040"
                 id="Fill-7"
                 d="m 43.372968,5.4341429 0,1.8755251 0.05338,0 c 0.497486,-0.7141469 1.097793,-1.267816 1.800511,-1.6608706 0.702174,-0.3931912 1.507167,-0.5896501 2.413892,-0.5896501 0.871316,0 1.667185,0.1697811 2.387607,0.5087956 0.720151,0.3395618 1.266936,0.9379676 1.640221,1.7957647 0.409102,-0.6071614 0.96474,-1.1433189 1.667185,-1.6079251 0.702447,-0.4646058 1.534132,-0.6966352 2.494106,-0.6966352 0.729138,0 1.404619,0.089474 2.027532,0.2680105 0.622369,0.1785367 1.155809,0.4647426 1.600319,0.8572498 0.444237,0.3930546 0.791102,0.9071855 1.040322,1.5410251 0.248811,0.6343869 0.373557,1.3980589 0.373557,2.2912903 l 0,9.271323 -3.787869,0 0,-7.851238 c 0,-0.464743 -0.01798,-0.901987 -0.05325,-1.3131 C 56.994671,9.7131418 56.897026,9.3555211 56.737008,9.05194 56.57699,8.7483593 56.341116,8.5070269 56.030204,8.3284902 55.718747,8.1499535 55.296435,8.0603429 54.762996,8.0603429 c -0.53344,0 -0.965012,0.1030178 -1.293765,0.3082324 -0.329024,0.2053516 -0.586687,0.4733618 -0.773398,0.8037574 -0.186711,0.3308058 -0.311457,0.7059382 -0.373694,1.1252603 -0.06251,0.420417 -0.09315,0.84439 -0.09315,1.272878 l 0,7.717575 -3.787869,0 0,-7.771068 c 0,-0.410566 -0.0093,-0.817027 -0.02669,-1.219385 C 48.396586,9.8956458 48.321003,9.5253018 48.187814,9.1856033 48.054352,8.8465887 47.831825,8.5739269 47.521049,8.3685753 47.209592,8.1633607 46.751327,8.0603429 46.147071,8.0603429 c -0.177995,0 -0.413324,0.040222 -0.706804,0.1203927 -0.293616,0.080307 -0.578108,0.2327135 -0.853612,0.4554397 -0.275776,0.2238207 -0.511377,0.5454603 -0.706804,0.9646454 -0.195971,0.4198693 -0.29348,0.9694343 -0.29348,1.6481473 l 0,8.039078 -3.787869,0 0,-13.8539031 3.574466,0" />
              <path
                 style="fill:#404040"
                 id="Fill-9"
                 d="m 67.024612,13.995561 c 0.106497,0.527401 0.28885,1.000763 0.546649,1.420632 0.257664,0.419869 0.600307,0.754779 1.026977,1.004868 0.426942,0.250088 0.960382,0.375132 1.60059,0.375132 0.64021,0 1.177735,-0.125044 1.613665,-0.375132 0.435522,-0.250089 0.782251,-0.584999 1.040459,-1.004868 0.257663,-0.419869 0.440016,-0.893231 0.546785,-1.420632 0.10677,-0.526307 0.160018,-1.067117 0.160018,-1.620786 0,-0.553668 -0.05325,-1.099129 -0.160018,-1.634739 C 73.292968,10.203878 73.110615,9.7310636 72.852952,9.3194033 72.594744,8.9088371 72.248015,8.5739269 71.812493,8.3145356 71.376563,8.0563756 70.839038,7.925996 70.198828,7.925996 c -0.640208,0 -1.173648,0.1303796 -1.60059,0.3885396 -0.42667,0.2593913 -0.769313,0.5943015 -1.026977,1.0048677 -0.257799,0.4116603 -0.440152,0.8844747 -0.546649,1.4206327 -0.106906,0.53561 -0.160155,1.081071 -0.160155,1.634739 0,0.553669 0.05325,1.094479 0.160155,1.620786 l 0,0 0,0 z m -3.44114,-4.6353886 c 0.33774,-0.9019866 0.817659,-1.6701735 1.440436,-2.3046971 0.622368,-0.6338397 1.369075,-1.1258073 2.240527,-1.4741251 0.871316,-0.3483175 1.849266,-0.5222029 2.934393,-0.5222029 1.084583,0 2.067163,0.1738854 2.947331,0.5222029 0.880441,0.3483178 1.631641,0.8402854 2.254146,1.4741251 0.622369,0.6345236 1.10256,1.4027105 1.440573,2.3046971 0.337468,0.9018506 0.506746,1.9067176 0.506746,3.0146026 0,1.107749 -0.169278,2.108102 -0.506746,3.001333 -0.338013,0.893231 -0.818204,1.656766 -1.440573,2.290605 -0.622505,0.634387 -1.373705,1.121704 -2.254146,1.460855 -0.880168,0.339015 -1.862748,0.508796 -2.947331,0.508796 -1.085127,0 -2.063077,-0.169781 -2.934393,-0.508796 -0.871452,-0.339151 -1.618159,-0.826468 -2.240527,-1.460855 -0.622777,-0.633839 -1.102696,-1.397374 -1.440436,-2.290605 -0.338149,-0.893231 -0.506884,-1.893584 -0.506884,-3.001333 0,-1.107885 0.168735,-2.112752 0.506884,-3.0146026 l 0,0 0,0 z" />
              <path
                 style="fill:#404040"
                 id="Fill-10"
                 d="M 89.665077,10.686543 C 89.540603,10.150386 89.344904,9.677024 89.078389,9.2659105 88.811465,8.8553444 88.478082,8.5290531 88.078105,8.2877207 87.677719,8.0470724 87.193306,7.925996 86.624186,7.925996 c -0.551415,0 -1.03147,0.1210764 -1.440572,0.3617247 -0.409238,0.2413324 -0.746706,0.5676237 -1.013494,0.9781898 -0.266652,0.4111135 -0.462623,0.8844755 -0.586824,1.4206325 -0.124746,0.53561 -0.186575,1.098582 -0.186575,1.688232 0,0.571592 0.06183,1.125261 0.186575,1.661418 0.124201,0.53561 0.320172,1.008972 0.586824,1.420086 0.266788,0.411113 0.604256,0.736857 1.013494,0.978189 0.409102,0.240785 0.889157,0.361725 1.440572,0.361725 0.56912,0 1.053533,-0.12094 1.453919,-0.361725 0.399977,-0.241332 0.73336,-0.567076 1.000284,-0.978189 0.266515,-0.411114 0.462214,-0.884476 0.586688,-1.420086 0.124201,-0.536157 0.186711,-1.089826 0.186711,-1.661418 0,-0.58965 -0.06251,-1.152622 -0.186711,-1.688232 l 0,0 0,0 z m -6.135302,-10.53147791 0,6.96731021 0.05352,0 c 0.46235,-0.7141469 1.088941,-1.2368971 1.880588,-1.5678397 0.790967,-0.3302589 1.613937,-0.4953883 2.467413,-0.4953883 0.693457,0 1.377791,0.1429661 2.053816,0.4284883 0.675618,0.2862058 1.28464,0.7234498 1.82734,1.3131 0.542019,0.5897869 0.982308,1.3445662 1.320321,2.264475 0.337604,0.9200458 0.506883,2.0145234 0.506883,3.2827504 0,1.268363 -0.169279,2.362294 -0.506883,3.282203 -0.338013,0.920592 -0.778302,1.674825 -1.320321,2.264474 -0.5427,0.589651 -1.151722,1.027579 -1.82734,1.313101 -0.676025,0.285522 -1.360359,0.428625 -2.053816,0.428625 -1.013631,0 -1.920763,-0.160478 -2.720991,-0.482118 -0.799955,-0.32164 -1.404891,-0.866416 -1.813585,-1.63474 l -0.05366,0 0,1.76854 -3.600886,0 0,-19.13298091 3.787597,0 0,0 z" />
              <path
                 style="fill:#404040"
                 id="Fill-5"
                 d="m 5.8949344,0.15506509 4.4547706,13.15713091 0.05325,0 4.214947,-13.15713091 5.894935,0 0,19.13298091 -3.921059,0 0,-13.559078 -0.05352,0 -4.668038,13.559078 -3.2276008,0 -4.6680374,-13.425278 -0.053249,0 0,13.425278 -3.9213312,0 0,-19.13298091 5.8949344,0" />
            </g>
          </g>
        </g>
      </g>
    </g>
  </g>
</svg>
